<?xml version="1.0" encoding="utf-8" ?>
<svg baseProfile="full" height="1024" version="1.1" viewBox="0 0 1024 1024" width="1024" xmlns="http://www.w3.org/2000/svg" xmlns:ev="http://www.w3.org/2001/xml-events" xmlns:xlink="http://www.w3.org/1999/xlink"><defs /><path d="M 503,748 L 502,749 L 498,749 L 497,750 L 495,750 L 494,751 L 492,751 L 491,752 L 490,752 L 489,753 L 488,753 L 487,754 L 486,754 L 485,755 L 484,755 L 483,756 L 482,756 L 479,759 L 478,759 L 468,769 L 468,770 L 466,772 L 466,773 L 465,774 L 465,775 L 464,776 L 464,777 L 463,778 L 463,779 L 462,780 L 462,781 L 461,782 L 461,784 L 460,785 L 460,788 L 459,789 L 459,794 L 458,795 L 458,804 L 459,805 L 459,810 L 460,811 L 460,814 L 461,815 L 461,817 L 462,818 L 462,820 L 463,821 L 463,822 L 464,823 L 464,824 L 465,825 L 465,826 L 467,828 L 467,829 L 469,831 L 469,832 L 479,842 L 480,842 L 482,844 L 483,844 L 485,846 L 486,846 L 487,847 L 488,847 L 489,848 L 491,848 L 492,849 L 494,849 L 495,850 L 497,850 L 498,851 L 502,851 L 503,852 L 518,852 L 519,851 L 523,851 L 524,850 L 526,850 L 527,849 L 529,849 L 530,848 L 531,848 L 532,847 L 533,847 L 534,846 L 535,846 L 536,845 L 537,845 L 538,844 L 539,844 L 542,841 L 543,841 L 551,833 L 551,832 L 554,829 L 554,828 L 556,826 L 556,825 L 557,824 L 557,823 L 558,822 L 558,820 L 559,819 L 559,818 L 560,817 L 560,815 L 561,814 L 561,810 L 562,809 L 562,791 L 561,790 L 561,786 L 560,785 L 560,783 L 559,782 L 559,780 L 558,779 L 558,778 L 557,777 L 557,776 L 556,775 L 556,774 L 555,773 L 555,772 L 552,769 L 552,768 L 542,758 L 541,758 L 539,756 L 538,756 L 536,754 L 535,754 L 534,753 L 533,753 L 532,752 L 530,752 L 529,751 L 528,751 L 527,750 L 524,750 L 523,749 L 520,749 L 519,748 Z" fill="black" /><path d="M 498,628 L 497,629 L 488,629 L 487,630 L 480,630 L 479,631 L 475,631 L 474,632 L 470,632 L 469,633 L 466,633 L 465,634 L 463,634 L 462,635 L 459,635 L 458,636 L 456,636 L 455,637 L 454,637 L 453,638 L 451,638 L 450,639 L 448,639 L 447,640 L 446,640 L 445,641 L 444,641 L 443,642 L 441,642 L 440,643 L 439,643 L 438,644 L 437,644 L 436,645 L 435,645 L 434,646 L 433,646 L 431,648 L 430,648 L 429,649 L 428,649 L 427,650 L 426,650 L 424,652 L 423,652 L 421,654 L 420,654 L 417,657 L 416,657 L 413,660 L 412,660 L 408,664 L 407,664 L 399,672 L 399,673 L 398,674 L 398,675 L 397,676 L 397,678 L 396,679 L 396,684 L 397,685 L 397,687 L 398,688 L 398,689 L 399,690 L 399,691 L 404,696 L 404,697 L 409,702 L 409,703 L 414,708 L 414,709 L 420,715 L 420,716 L 427,723 L 428,723 L 429,724 L 430,724 L 431,725 L 433,725 L 434,726 L 441,726 L 442,725 L 444,725 L 445,724 L 446,724 L 447,723 L 448,723 L 449,722 L 450,722 L 452,720 L 453,720 L 456,717 L 457,717 L 460,714 L 461,714 L 464,711 L 465,711 L 467,709 L 468,709 L 470,707 L 471,707 L 472,706 L 473,706 L 474,705 L 476,705 L 477,704 L 479,704 L 480,703 L 482,703 L 483,702 L 485,702 L 486,701 L 488,701 L 489,700 L 493,700 L 494,699 L 499,699 L 500,698 L 521,698 L 522,699 L 527,699 L 528,700 L 532,700 L 533,701 L 536,701 L 537,702 L 540,702 L 541,703 L 542,703 L 543,704 L 545,704 L 546,705 L 548,705 L 549,706 L 550,706 L 551,707 L 552,707 L 553,708 L 554,708 L 555,709 L 556,709 L 559,712 L 560,712 L 562,714 L 563,714 L 566,717 L 567,717 L 570,720 L 571,720 L 573,722 L 574,722 L 575,723 L 576,723 L 577,724 L 578,724 L 579,725 L 581,725 L 582,726 L 589,726 L 590,725 L 592,725 L 593,724 L 594,724 L 596,722 L 597,722 L 603,716 L 603,715 L 608,710 L 608,709 L 614,703 L 614,702 L 619,697 L 619,696 L 623,692 L 623,691 L 625,689 L 625,688 L 626,687 L 626,685 L 627,684 L 627,680 L 626,679 L 626,676 L 625,675 L 625,674 L 623,672 L 623,671 L 618,666 L 617,666 L 614,663 L 613,663 L 610,660 L 609,660 L 606,657 L 605,657 L 602,654 L 601,654 L 600,653 L 599,653 L 597,651 L 596,651 L 594,649 L 593,649 L 592,648 L 591,648 L 590,647 L 589,647 L 588,646 L 587,646 L 586,645 L 585,645 L 584,644 L 583,644 L 582,643 L 581,643 L 580,642 L 579,642 L 578,641 L 576,641 L 575,640 L 574,640 L 573,639 L 571,639 L 570,638 L 568,638 L 567,637 L 565,637 L 564,636 L 562,636 L 561,635 L 559,635 L 558,634 L 555,634 L 554,633 L 551,633 L 550,632 L 546,632 L 545,631 L 541,631 L 540,630 L 534,630 L 533,629 L 524,629 L 523,628 Z" fill="black" /><path d="M 491,503 L 490,504 L 480,504 L 479,505 L 471,505 L 470,506 L 464,506 L 463,507 L 458,507 L 457,508 L 453,508 L 452,509 L 448,509 L 447,510 L 443,510 L 442,511 L 439,511 L 438,512 L 435,512 L 434,513 L 432,513 L 431,514 L 428,514 L 427,515 L 425,515 L 424,516 L 422,516 L 421,517 L 419,517 L 418,518 L 416,518 L 415,519 L 413,519 L 412,520 L 410,520 L 409,521 L 407,521 L 406,522 L 405,522 L 404,523 L 402,523 L 401,524 L 400,524 L 399,525 L 397,525 L 396,526 L 395,526 L 394,527 L 393,527 L 392,528 L 391,528 L 390,529 L 388,529 L 387,530 L 386,530 L 385,531 L 384,531 L 383,532 L 382,532 L 381,533 L 380,533 L 379,534 L 378,534 L 377,535 L 376,535 L 375,536 L 374,536 L 373,537 L 372,537 L 370,539 L 369,539 L 368,540 L 367,540 L 366,541 L 365,541 L 363,543 L 362,543 L 361,544 L 360,544 L 358,546 L 357,546 L 356,547 L 355,547 L 353,549 L 352,549 L 350,551 L 349,551 L 347,553 L 346,553 L 343,556 L 342,556 L 339,559 L 338,559 L 335,562 L 334,562 L 330,566 L 329,566 L 319,576 L 319,577 L 318,578 L 318,579 L 317,580 L 317,582 L 316,583 L 316,587 L 317,588 L 317,591 L 318,592 L 318,593 L 319,594 L 319,595 L 322,598 L 322,599 L 328,605 L 328,606 L 334,612 L 334,613 L 340,619 L 340,620 L 349,629 L 350,629 L 351,630 L 353,630 L 354,631 L 366,631 L 367,630 L 369,630 L 371,628 L 372,628 L 374,626 L 375,626 L 378,623 L 379,623 L 384,618 L 385,618 L 388,615 L 389,615 L 391,613 L 392,613 L 394,611 L 395,611 L 397,609 L 398,609 L 400,607 L 401,607 L 402,606 L 403,606 L 405,604 L 406,604 L 407,603 L 408,603 L 409,602 L 410,602 L 411,601 L 412,601 L 413,600 L 414,600 L 415,599 L 416,599 L 417,598 L 418,598 L 419,597 L 420,597 L 421,596 L 422,596 L 423,595 L 425,595 L 426,594 L 427,594 L 428,593 L 430,593 L 431,592 L 432,592 L 433,591 L 435,591 L 436,590 L 438,590 L 439,589 L 441,589 L 442,588 L 444,588 L 445,587 L 447,587 L 448,586 L 451,586 L 452,585 L 455,585 L 456,584 L 459,584 L 460,583 L 463,583 L 464,582 L 469,582 L 470,581 L 475,581 L 476,580 L 482,580 L 483,579 L 493,579 L 494,578 L 527,578 L 528,579 L 538,579 L 539,580 L 545,580 L 546,581 L 551,581 L 552,582 L 556,582 L 557,583 L 561,583 L 562,584 L 565,584 L 566,585 L 569,585 L 570,586 L 573,586 L 574,587 L 576,587 L 577,588 L 579,588 L 580,589 L 582,589 L 583,590 L 585,590 L 586,591 L 588,591 L 589,592 L 591,592 L 592,593 L 593,593 L 594,594 L 596,594 L 597,595 L 598,595 L 599,596 L 600,596 L 601,597 L 603,597 L 604,598 L 605,598 L 606,599 L 607,599 L 608,600 L 609,600 L 611,602 L 612,602 L 613,603 L 614,603 L 615,604 L 616,604 L 617,605 L 618,605 L 619,606 L 620,606 L 622,608 L 623,608 L 624,609 L 625,609 L 627,611 L 628,611 L 630,613 L 631,613 L 634,616 L 635,616 L 639,620 L 640,620 L 644,624 L 645,624 L 647,626 L 648,626 L 650,628 L 651,628 L 652,629 L 653,629 L 654,630 L 656,630 L 657,631 L 669,631 L 670,630 L 671,630 L 672,629 L 673,629 L 683,619 L 683,618 L 689,612 L 689,611 L 696,604 L 696,603 L 701,598 L 701,597 L 704,594 L 704,593 L 705,592 L 705,591 L 706,590 L 706,581 L 705,580 L 705,579 L 704,578 L 704,577 L 703,576 L 703,575 L 697,569 L 696,569 L 691,564 L 690,564 L 687,561 L 686,561 L 682,557 L 681,557 L 678,554 L 677,554 L 675,552 L 674,552 L 672,550 L 671,550 L 669,548 L 668,548 L 666,546 L 665,546 L 664,545 L 663,545 L 661,543 L 660,543 L 659,542 L 658,542 L 657,541 L 656,541 L 654,539 L 653,539 L 652,538 L 651,538 L 650,537 L 649,537 L 648,536 L 647,536 L 646,535 L 645,535 L 644,534 L 643,534 L 642,533 L 641,533 L 640,532 L 639,532 L 638,531 L 637,531 L 636,530 L 635,530 L 634,529 L 632,529 L 631,528 L 630,528 L 629,527 L 628,527 L 627,526 L 625,526 L 624,525 L 623,525 L 622,524 L 620,524 L 619,523 L 618,523 L 617,522 L 615,522 L 614,521 L 612,521 L 611,520 L 609,520 L 608,519 L 606,519 L 605,518 L 603,518 L 602,517 L 600,517 L 599,516 L 596,516 L 595,515 L 593,515 L 592,514 L 590,514 L 589,513 L 586,513 L 585,512 L 582,512 L 581,511 L 577,511 L 576,510 L 573,510 L 572,509 L 568,509 L 567,508 L 563,508 L 562,507 L 557,507 L 556,506 L 549,506 L 548,505 L 541,505 L 540,504 L 529,504 L 528,503 Z" fill="black" /><path d="M 582,326 L 581,327 L 581,353 L 580,354 L 580,392 L 579,393 L 561,393 L 560,394 L 543,394 L 541,392 L 541,361 L 539,359 L 506,359 L 504,361 L 504,393 L 503,394 L 441,394 L 441,413 L 442,414 L 442,436 L 441,437 L 439,437 L 438,438 L 418,438 L 417,439 L 409,439 L 408,438 L 407,438 L 406,437 L 406,436 L 405,435 L 405,427 L 406,426 L 406,415 L 407,414 L 407,403 L 408,402 L 408,394 L 374,394 L 373,393 L 363,393 L 362,392 L 361,392 L 360,391 L 360,379 L 359,378 L 359,357 L 358,356 L 358,355 L 355,355 L 354,354 L 322,354 L 320,356 L 320,386 L 319,387 L 319,414 L 317,416 L 316,416 L 314,418 L 313,418 L 312,419 L 311,419 L 309,421 L 308,421 L 307,422 L 306,422 L 305,423 L 304,423 L 302,425 L 301,425 L 300,426 L 299,426 L 297,428 L 296,428 L 295,429 L 294,429 L 292,431 L 291,431 L 290,432 L 289,432 L 287,434 L 286,434 L 284,436 L 283,436 L 281,438 L 280,438 L 278,440 L 277,440 L 275,442 L 274,442 L 272,444 L 271,444 L 269,446 L 268,446 L 265,449 L 264,449 L 261,452 L 260,452 L 256,456 L 255,456 L 250,461 L 249,461 L 237,473 L 237,474 L 235,476 L 235,477 L 233,479 L 233,481 L 232,482 L 232,489 L 233,490 L 233,492 L 234,493 L 234,494 L 235,495 L 235,496 L 238,499 L 238,500 L 244,506 L 244,507 L 251,514 L 251,515 L 257,521 L 257,522 L 264,529 L 265,529 L 267,531 L 268,531 L 269,532 L 270,532 L 271,533 L 272,533 L 273,534 L 277,534 L 278,535 L 283,535 L 284,534 L 287,534 L 288,533 L 290,533 L 292,531 L 293,531 L 299,525 L 300,525 L 305,520 L 306,520 L 310,516 L 311,516 L 314,513 L 315,513 L 318,510 L 319,510 L 321,508 L 322,508 L 324,506 L 325,506 L 327,504 L 328,504 L 329,503 L 330,503 L 332,501 L 333,501 L 334,500 L 335,500 L 337,498 L 338,498 L 339,497 L 340,497 L 341,496 L 342,496 L 343,495 L 344,495 L 346,493 L 347,493 L 348,492 L 349,492 L 350,491 L 351,491 L 352,490 L 353,490 L 354,489 L 355,489 L 356,488 L 357,488 L 358,487 L 359,487 L 360,486 L 361,486 L 362,485 L 363,485 L 364,484 L 365,484 L 366,483 L 367,483 L 368,482 L 370,482 L 371,481 L 372,481 L 373,480 L 374,480 L 375,479 L 376,479 L 377,478 L 379,478 L 380,477 L 381,477 L 382,476 L 384,476 L 385,475 L 387,475 L 388,474 L 389,474 L 390,473 L 392,473 L 393,472 L 395,472 L 396,471 L 398,471 L 399,470 L 401,470 L 402,469 L 404,469 L 405,468 L 407,468 L 408,467 L 410,467 L 411,466 L 414,466 L 415,465 L 417,465 L 418,464 L 421,464 L 422,463 L 425,463 L 426,462 L 429,462 L 430,461 L 433,461 L 434,460 L 438,460 L 439,459 L 443,459 L 444,458 L 448,458 L 449,457 L 454,457 L 455,456 L 461,456 L 462,455 L 469,455 L 470,454 L 479,454 L 480,453 L 497,453 L 498,452 L 521,452 L 522,453 L 540,453 L 541,454 L 550,454 L 551,455 L 558,455 L 559,456 L 565,456 L 566,457 L 571,457 L 572,458 L 577,458 L 578,459 L 582,459 L 583,460 L 586,460 L 587,461 L 591,461 L 592,462 L 595,462 L 596,463 L 599,463 L 600,464 L 602,464 L 603,465 L 606,465 L 607,466 L 609,466 L 610,467 L 612,467 L 613,468 L 616,468 L 617,469 L 619,469 L 620,470 L 622,470 L 623,471 L 625,471 L 626,472 L 627,472 L 628,473 L 630,473 L 631,474 L 633,474 L 634,475 L 635,475 L 636,476 L 638,476 L 639,477 L 641,477 L 642,478 L 643,478 L 644,479 L 645,479 L 646,480 L 648,480 L 649,481 L 650,481 L 651,482 L 652,482 L 653,483 L 654,483 L 655,484 L 656,484 L 657,485 L 658,485 L 659,486 L 660,486 L 661,487 L 662,487 L 663,488 L 664,488 L 665,489 L 667,489 L 669,491 L 670,491 L 671,492 L 672,492 L 673,493 L 674,493 L 675,494 L 676,494 L 678,496 L 679,496 L 680,497 L 681,497 L 682,498 L 683,498 L 685,500 L 686,500 L 687,501 L 688,501 L 690,503 L 691,503 L 692,504 L 693,504 L 695,506 L 696,506 L 698,508 L 699,508 L 701,510 L 702,510 L 704,512 L 705,512 L 707,514 L 708,514 L 711,517 L 712,517 L 715,520 L 716,520 L 721,525 L 722,525 L 727,530 L 728,530 L 730,532 L 731,532 L 732,533 L 733,533 L 734,534 L 737,534 L 738,535 L 744,535 L 745,534 L 749,534 L 750,533 L 751,533 L 752,532 L 754,532 L 756,530 L 757,530 L 769,518 L 769,517 L 775,511 L 775,510 L 781,504 L 781,503 L 786,498 L 786,497 L 788,495 L 788,494 L 789,493 L 789,491 L 790,490 L 790,483 L 789,482 L 789,480 L 788,479 L 788,478 L 786,476 L 786,475 L 772,461 L 771,461 L 766,456 L 765,456 L 762,453 L 761,453 L 758,450 L 757,450 L 755,448 L 754,448 L 751,445 L 750,445 L 748,443 L 747,443 L 745,441 L 744,441 L 742,439 L 741,439 L 739,437 L 738,437 L 737,436 L 736,436 L 734,434 L 733,434 L 731,432 L 730,432 L 729,431 L 728,431 L 726,429 L 725,429 L 724,428 L 723,428 L 721,426 L 720,426 L 719,425 L 718,425 L 716,423 L 715,423 L 714,422 L 713,422 L 712,421 L 711,421 L 709,419 L 708,419 L 706,417 L 705,417 L 704,416 L 703,416 L 701,414 L 701,405 L 700,404 L 700,357 L 698,355 L 689,355 L 688,354 L 663,354 L 661,356 L 661,361 L 660,362 L 660,389 L 659,390 L 659,391 L 658,392 L 655,392 L 654,393 L 630,393 L 629,392 L 629,391 L 628,390 L 628,328 L 626,326 Z" fill="black" /><path d="M 405,312 L 404,313 L 394,313 L 393,314 L 393,352 L 394,353 L 395,353 L 396,354 L 406,354 L 407,355 L 422,355 L 423,354 L 435,354 L 436,353 L 436,314 L 435,313 L 427,313 L 426,312 Z" fill="black" /><path d="M 484,281 L 483,282 L 483,295 L 482,296 L 482,310 L 481,311 L 481,322 L 482,323 L 482,331 L 483,332 L 483,333 L 484,334 L 485,334 L 486,335 L 535,335 L 537,333 L 537,332 L 538,331 L 538,311 L 539,310 L 539,284 L 538,283 L 538,282 L 537,282 L 536,281 Z" fill="black" /><path d="M 620,235 L 619,236 L 607,236 L 604,239 L 604,275 L 605,276 L 605,278 L 606,279 L 647,279 L 648,278 L 648,248 L 649,247 L 648,246 L 648,237 L 647,236 L 631,236 L 630,235 Z" fill="black" /><path d="M 368,225 L 367,226 L 367,231 L 366,232 L 366,267 L 367,268 L 367,270 L 369,272 L 386,272 L 387,273 L 409,273 L 410,272 L 411,272 L 413,270 L 413,264 L 414,263 L 414,229 L 413,228 L 413,227 L 412,226 L 411,226 L 410,225 Z" fill="black" /><path d="M 458,124 L 455,127 L 455,234 L 457,236 L 564,236 L 566,234 L 566,233 L 567,232 L 567,128 L 566,127 L 566,126 L 565,125 L 564,125 L 563,124 Z" fill="black" /></svg>