<?xml version="1.0" encoding="UTF-8"?>
<svg xmlns="http://www.w3.org/2000/svg" version="1.1" viewBox="0 0 1024 1024" width="1024px"
  height="1024px"
  style="shape-rendering:geometricPrecision; text-rendering:geometricPrecision; image-rendering:optimizeQuality; fill-rule:evenodd; clip-rule:evenodd;
    --border-color: oklch(14% 0.015 90);
    --body-color: oklch(85% 0.18 90);
    --wing-color: oklch(86.6% 0.13 236.6);"
  xmlns:xlink="http://www.w3.org/1999/xlink">
  <g>
    <path style="opacity:0.008" fill="var(--border-color)"
      d="M 511.5,176.5 C 512.251,175.427 513.251,175.26 514.5,176C 513.552,176.483 512.552,176.649 511.5,176.5 Z" />
  </g>
  <g>
    <path style="opacity:0.006" fill="var(--border-color)"
      d="M 526.5,175.5 C 527.525,175.897 527.692,176.563 527,177.5C 526.536,176.906 526.369,176.239 526.5,175.5 Z" />
  </g>
  <g>
    <path style="opacity:0.008" fill="var(--border-color)"
      d="M 479.5,176.5 C 480.833,177.167 480.833,177.167 479.5,176.5 Z" />
  </g>
  <g>
    <path style="opacity:0.008" fill="var(--border-color)"
      d="M 528.5,177.5 C 529.833,178.167 529.833,178.167 528.5,177.5 Z" />
  </g>
  <g>
    <path style="opacity:0.004" fill="var(--border-color)"
      d="M 536.5,179.5 C 536.897,178.475 537.563,178.308 538.5,179C 537.906,179.464 537.239,179.631 536.5,179.5 Z" />
  </g>
  <g>
    <path style="opacity:0.999" fill="var(--border-color)"
      d="M 554.5,184.5 C 560.624,187.049 566.791,189.716 573,192.5C 574.388,191.446 575.888,191.28 577.5,192C 576.5,192.333 575.5,192.667 574.5,193C 580.664,196.356 586.664,199.856 592.5,203.5C 592.833,204.5 593.5,205.167 594.5,205.5C 596.808,207.471 599.142,209.471 601.5,211.5C 605.864,221.234 603.531,228.734 594.5,234C 591.167,234.667 587.833,234.667 584.5,234C 582.283,232.277 579.95,230.777 577.5,229.5C 575.082,226.453 572.082,224.12 568.5,222.5C 562.081,218.023 555.081,214.689 547.5,212.5C 536.059,207.926 524.059,205.926 511.5,206.5C 498.616,205.91 486.283,207.91 474.5,212.5C 467.623,215.073 461.29,217.906 455.5,221C 449.833,225.333 444.167,229.667 438.5,234C 434.446,234.694 430.446,234.527 426.5,233.5C 424.833,231.833 423.167,230.167 421.5,228.5C 421.068,227.29 420.401,226.29 419.5,225.5C 419.335,222.15 419.502,218.817 420,215.5C 422.032,211.421 424.866,208.088 428.5,205.5C 431.135,204.189 433.469,202.522 435.5,200.5C 439.457,198.527 443.124,196.194 446.5,193.5C 453.909,190.48 461.243,187.48 468.5,184.5C 497.174,176.5 525.841,176.5 554.5,184.5 Z" />
  </g>
  <g>
    <path style="opacity:0.008" fill="var(--border-color)"
      d="M 464.5,184.5 C 465.833,183.167 467.167,183.167 468.5,184.5C 467.167,184.5 465.833,184.5 464.5,184.5 Z" />
  </g>
  <g>
    <path style="opacity:0.008" fill="var(--border-color)"
      d="M 554.5,184.5 C 554.897,183.475 555.563,183.308 556.5,184C 555.906,184.464 555.239,184.631 554.5,184.5 Z" />
  </g>
  <g>
    <path style="opacity:0.004" fill="var(--border-color)"
      d="M 560.5,183.5 C 561.833,184.167 561.833,184.167 560.5,183.5 Z" />
  </g>
  <g>
    <path style="opacity:0.008" fill="var(--border-color)"
      d="M 464.5,184.5 C 463.833,185.167 463.833,185.167 464.5,184.5 Z" />
  </g>
  <g>
    <path style="opacity:0.004" fill="var(--border-color)"
      d="M 558.5,183.5 C 559.525,183.897 559.692,184.563 559,185.5C 558.536,184.906 558.369,184.239 558.5,183.5 Z" />
  </g>
  <g>
    <path style="opacity:0.004" fill="var(--border-color)"
      d="M 561.5,185.5 C 562.833,186.167 562.833,186.167 561.5,185.5 Z" />
  </g>
  <g>
    <path style="opacity:0.004" fill="var(--border-color)"
      d="M 442.5,193.5 C 439.863,191.846 440.197,191.346 443.5,192C 442.944,192.383 442.611,192.883 442.5,193.5 Z" />
  </g>
  <g>
    <path style="opacity:0.004" fill="var(--border-color)"
      d="M 446.5,193.5 C 445.475,193.103 445.308,192.437 446,191.5C 446.464,192.094 446.631,192.761 446.5,193.5 Z" />
  </g>
  <g>
    <path style="opacity:0.004" fill="var(--border-color)"
      d="M 442.5,193.5 C 443.833,194.167 443.833,194.167 442.5,193.5 Z" />
  </g>
  <g>
    <path style="opacity:0.012" fill="var(--border-color)"
      d="M 581.5,193.5 C 582.833,194.167 582.833,194.167 581.5,193.5 Z" />
  </g>
  <g>
    <path style="opacity:0.004" fill="var(--border-color)"
      d="M 439.5,194.5 C 440.833,195.167 440.833,195.167 439.5,194.5 Z" />
  </g>
  <g>
    <path style="opacity:0.008" fill="var(--border-color)"
      d="M 581.5,194.5 C 580.833,195.167 580.833,195.167 581.5,194.5 Z" />
  </g>
  <g>
    <path style="opacity:0.02" fill="var(--border-color)"
      d="M 435.5,200.5 C 434.761,200.631 434.094,200.464 433.5,200C 434.437,199.308 435.103,199.475 435.5,200.5 Z" />
  </g>
  <g>
    <path style="opacity:0.004" fill="var(--border-color)"
      d="M 592.5,202.5 C 593.833,203.167 593.833,203.167 592.5,202.5 Z" />
  </g>
  <g>
    <path style="opacity:0.004" fill="var(--border-color)"
      d="M 428.5,205.5 C 427.833,204.167 427.833,204.167 428.5,205.5 Z" />
  </g>
  <g>
    <path style="opacity:0.004" fill="var(--border-color)"
      d="M 594.5,204.5 C 595.833,205.167 595.833,205.167 594.5,204.5 Z" />
  </g>
  <g>
    <path style="opacity:0.004" fill="var(--border-color)"
      d="M 483.5,210.5 C 484.833,211.167 484.833,211.167 483.5,210.5 Z" />
  </g>
  <g>
    <path style="opacity:0.004" fill="var(--border-color)"
      d="M 486.5,210.5 C 487.833,211.167 487.833,211.167 486.5,210.5 Z" />
  </g>
  <g>
    <path style="opacity:0.004" fill="var(--border-color)"
      d="M 601.5,210.5 C 602.833,211.167 602.833,211.167 601.5,210.5 Z" />
  </g>
  <g>
    <path style="opacity:0.008" fill="var(--border-color)"
      d="M 541.5,211.5 C 542.833,212.167 542.833,212.167 541.5,211.5 Z" />
  </g>
  <g>
    <path style="opacity:0.004" fill="var(--border-color)"
      d="M 537.5,212.5 C 538.833,213.167 538.833,213.167 537.5,212.5 Z" />
  </g>
  <g>
    <path style="opacity:0.014" fill="var(--border-color)"
      d="M 547.5,212.5 C 546.749,213.573 545.749,213.74 544.5,213C 545.448,212.517 546.448,212.351 547.5,212.5 Z" />
  </g>
  <g>
    <path style="opacity:0.008" fill="var(--border-color)"
      d="M 474.5,212.5 C 478.339,212.612 478.339,213.279 474.5,214.5C 473.537,214.03 473.537,213.363 474.5,212.5 Z" />
  </g>
  <g>
    <path style="opacity:0.016" fill="var(--border-color)"
      d="M 470.5,214.5 C 471.833,215.167 471.833,215.167 470.5,214.5 Z" />
  </g>
  <g>
    <path style="opacity:0.008" fill="var(--border-color)"
      d="M 476.5,214.5 C 477.833,215.167 477.833,215.167 476.5,214.5 Z" />
  </g>
  <g>
    <path style="opacity:0.004" fill="var(--border-color)"
      d="M 479.5,214.5 C 480.833,215.167 480.833,215.167 479.5,214.5 Z" />
  </g>
  <g>
    <path style="opacity:0.004" fill="var(--border-color)"
      d="M 543.5,214.5 C 544.833,215.167 544.833,215.167 543.5,214.5 Z" />
  </g>
  <g>
    <path style="opacity:0.012" fill="var(--border-color)"
      d="M 550.5,214.5 C 551.833,215.167 551.833,215.167 550.5,214.5 Z" />
  </g>
  <g>
    <path style="opacity:0.009" fill="var(--border-color)"
      d="M 415.5,219.5 C 416.209,218.596 417.209,218.263 418.5,218.5C 418.81,223.452 417.81,223.786 415.5,219.5 Z" />
  </g>
  <g>
    <path style="opacity:0.004" fill="var(--border-color)"
      d="M 561.5,220.5 C 562.833,221.167 562.833,221.167 561.5,220.5 Z" />
  </g>
  <g>
    <path style="opacity:0.004" fill="var(--border-color)"
      d="M 563.5,220.5 C 564.525,220.897 564.692,221.563 564,222.5C 563.536,221.906 563.369,221.239 563.5,220.5 Z" />
  </g>
  <g>
    <path style="opacity:0.004" fill="var(--border-color)"
      d="M 559.5,222.5 C 560.833,223.167 560.833,223.167 559.5,222.5 Z" />
  </g>
  <g>
    <path style="opacity:0.004" fill="var(--border-color)"
      d="M 568.5,222.5 C 567.833,223.167 567.833,223.167 568.5,222.5 Z" />
  </g>
  <g>
    <path style="opacity:0.004" fill="var(--border-color)"
      d="M 604.5,224.5 C 605.833,225.167 605.833,225.167 604.5,224.5 Z" />
  </g>
  <g>
    <path style="opacity:0.005" fill="var(--border-color)"
      d="M 419.5,225.5 C 419.483,227.028 418.816,227.528 417.5,227C 418.044,226.283 418.711,225.783 419.5,225.5 Z" />
  </g>
  <g>
    <path style="opacity:0.004" fill="var(--border-color)"
      d="M 416.5,228.5 C 417.833,229.167 417.833,229.167 416.5,228.5 Z" />
  </g>
  <g>
    <path style="opacity:0.004" fill="var(--border-color)"
      d="M 421.5,228.5 C 420.833,229.167 420.833,229.167 421.5,228.5 Z" />
  </g>
  <g>
    <path style="opacity:0.004" fill="var(--border-color)"
      d="M 577.5,229.5 C 576.833,230.167 576.833,230.167 577.5,229.5 Z" />
  </g>
  <g>
    <path style="opacity:0.012" fill="var(--border-color)"
      d="M 421.5,230.5 C 422.833,231.167 422.833,231.167 421.5,230.5 Z" />
  </g>
  <g>
    <path style="opacity:0.004" fill="var(--border-color)"
      d="M 487.5,231.5 C 488.833,232.167 488.833,232.167 487.5,231.5 Z" />
  </g>
  <g>
    <path style="opacity:0.004" fill="var(--border-color)"
      d="M 491.5,231.5 C 492.833,232.167 492.833,232.167 491.5,231.5 Z" />
  </g>
  <g>
    <path style="opacity:0.004" fill="var(--border-color)"
      d="M 501.5,232.5 C 502.946,231.387 504.613,231.22 506.5,232C 504.866,232.494 503.199,232.66 501.5,232.5 Z" />
  </g>
  <g>
    <path style="opacity:0.004" fill="var(--border-color)"
      d="M 507.5,232.5 C 508.251,231.427 509.251,231.26 510.5,232C 509.552,232.483 508.552,232.649 507.5,232.5 Z" />
  </g>
  <g>
    <path style="opacity:0.009" fill="var(--border-color)"
      d="M 511.5,232.5 C 512.251,231.427 513.251,231.26 514.5,232C 513.552,232.483 512.552,232.649 511.5,232.5 Z" />
  </g>
  <g>
    <path style="opacity:0.004" fill="var(--border-color)"
      d="M 515.5,232.5 C 515.897,231.475 516.563,231.308 517.5,232C 516.906,232.464 516.239,232.631 515.5,232.5 Z" />
  </g>
  <g>
    <path style="opacity:0.008" fill="var(--border-color)"
      d="M 519.5,232.5 C 519.897,231.475 520.563,231.308 521.5,232C 520.906,232.464 520.239,232.631 519.5,232.5 Z" />
  </g>
  <g>
    <path style="opacity:0.012" fill="var(--border-color)"
      d="M 423.5,232.5 C 424.833,233.167 424.833,233.167 423.5,232.5 Z" />
  </g>
  <g>
    <path style="opacity:0.004" fill="var(--border-color)"
      d="M 497.5,232.5 C 498.833,233.167 498.833,233.167 497.5,232.5 Z" />
  </g>
  <g>
    <path style="opacity:0.004" fill="var(--border-color)"
      d="M 523.5,233.5 C 523.897,232.475 524.563,232.308 525.5,233C 524.906,233.464 524.239,233.631 523.5,233.5 Z" />
  </g>
  <g>
    <path style="opacity:0.012" fill="var(--border-color)"
      d="M 526.5,232.5 C 527.833,233.167 527.833,233.167 526.5,232.5 Z" />
  </g>
  <g>
    <path style="opacity:0.004" fill="var(--border-color)"
      d="M 426.5,233.5 C 425.833,234.167 425.833,234.167 426.5,233.5 Z" />
  </g>
  <g>
    <path style="opacity:0.004" fill="var(--border-color)"
      d="M 489.5,233.5 C 490.833,234.167 490.833,234.167 489.5,233.5 Z" />
  </g>
  <g>
    <path style="opacity:0.004" fill="var(--border-color)"
      d="M 532.5,233.5 C 533.833,234.167 533.833,234.167 532.5,233.5 Z" />
  </g>
  <g>
    <path style="opacity:0.004" fill="var(--border-color)"
      d="M 423.5,234.5 C 424.833,235.167 424.833,235.167 423.5,234.5 Z" />
  </g>
  <g>
    <path style="opacity:0.012" fill="var(--border-color)"
      d="M 429.5,236.5 C 430.077,235.227 430.743,235.227 431.5,236.5C 431.03,237.463 430.363,237.463 429.5,236.5 Z" />
  </g>
  <g>
    <path style="opacity:0.999" fill="var(--border-color)"
      d="M 545.5,240.5 C 548.272,242.39 551.272,244.057 554.5,245.5C 564.302,253.224 564.968,261.724 556.5,271C 551.169,274.436 546.003,274.269 541,270.5C 540.586,270.957 540.086,271.291 539.5,271.5C 539.264,270.753 538.93,269.92 538.5,269C 521.641,259.758 504.308,259.092 486.5,267C 479.929,273.085 472.596,274.085 464.5,270C 457.169,260.984 458.169,252.984 467.5,246C 488.04,233.541 510.04,230.208 533.5,236C 537.631,237.235 541.631,238.735 545.5,240.5 Z" />
  </g>
  <g>
    <path style="opacity:0.004" fill="var(--border-color)"
      d="M 469.5,239.5 C 470.833,240.167 470.833,240.167 469.5,239.5 Z" />
  </g>
  <g>
    <path style="opacity:0.006" fill="var(--border-color)"
      d="M 545.5,240.5 C 545.897,239.475 546.563,239.308 547.5,240C 546.906,240.464 546.239,240.631 545.5,240.5 Z" />
  </g>
  <g>
    <path style="opacity:0.008" fill="var(--border-color)"
      d="M 472.5,240.5 C 473.833,241.167 473.833,241.167 472.5,240.5 Z" />
  </g>
  <g>
    <path style="opacity:0.004" fill="var(--border-color)"
      d="M 550.5,241.5 C 551.833,242.167 551.833,242.167 550.5,241.5 Z" />
  </g>
  <g>
    <path style="opacity:0.004" fill="var(--border-color)"
      d="M 554.5,244.5 C 555.833,245.167 555.833,245.167 554.5,244.5 Z" />
  </g>
  <g>
    <path style="opacity:0.004" fill="var(--border-color)"
      d="M 560.5,248.5 C 561.833,249.167 561.833,249.167 560.5,248.5 Z" />
  </g>
  <g>
    <path style="opacity:0.004" fill="var(--border-color)"
      d="M 566.5,250.5 C 567.833,251.167 567.833,251.167 566.5,250.5 Z" />
  </g>
  <g>
    <path style="opacity:0.008" fill="var(--border-color)"
      d="M 672.5,255.5 C 673.833,256.167 673.833,256.167 672.5,255.5 Z" />
  </g>
  <g>
    <path style="opacity:0.008" fill="var(--border-color)"
      d="M 674.5,256.5 C 675.833,257.167 675.833,257.167 674.5,256.5 Z" />
  </g>
  <g>
    <path style="opacity:0.004" fill="var(--border-color)"
      d="M 348.5,258.5 C 347.833,257.167 347.833,257.167 348.5,258.5 Z" />
  </g>
  <g>
    <path style="opacity:0.999" fill="var(--border-color)"
      d="M 384.5,258.5 C 389.691,260.179 394.858,262.179 400,264.5C 401.84,263.167 402.34,263.334 401.5,265C 406.553,267.527 411.553,270.027 416.5,272.5C 416.973,273.906 417.973,274.573 419.5,274.5C 428.401,281.06 436.734,288.393 444.5,296.5C 444.833,297.5 445.5,298.167 446.5,298.5C 449.453,303.45 452.786,308.117 456.5,312.5C 459.989,319.478 463.489,326.478 467,333.5C 468.622,332.901 470.122,332.234 471.5,331.5C 492.02,327.634 512.687,326.634 533.5,328.5C 541.031,329.566 548.531,331.233 556,333.5C 556.383,332.944 556.883,332.611 557.5,332.5C 557.81,333.738 558.31,333.738 559,332.5C 574.024,298.221 599.191,274.721 634.5,262C 633.906,261.536 633.239,261.369 632.5,261.5C 633.167,260.833 633.833,260.167 634.5,259.5C 644.096,257.512 653.763,255.845 663.5,254.5C 669.925,255.031 674.592,258.031 677.5,263.5C 679.673,273.323 676.006,279.823 666.5,283C 652.811,283.956 640.145,287.789 628.5,294.5C 623.366,295.899 619.033,298.565 615.5,302.5C 608.547,306.452 602.88,311.786 598.5,318.5C 595.529,320.443 593.529,323.109 592.5,326.5C 588.319,331.006 584.985,336.173 582.5,342C 588.732,346.615 595.399,350.448 602.5,353.5C 608.613,358.73 614.946,363.73 621.5,368.5C 622.436,369.974 623.77,370.974 625.5,371.5C 627.833,374.5 630.5,377.167 633.5,379.5C 636.821,384.152 640.487,388.485 644.5,392.5C 644.833,393.5 645.5,394.167 646.5,394.5C 649.453,399.45 652.786,404.117 656.5,408.5C 657.669,411.511 659.336,414.178 661.5,416.5C 665.649,425.466 670.316,434.133 675.5,442.5C 682.535,435.133 689.535,427.8 696.5,420.5C 697.086,420.709 697.586,421.043 698,421.5C 699.667,420.267 701.167,418.933 702.5,417.5C 706.439,415.554 710.106,413.221 713.5,410.5C 721.788,406.849 730.121,403.516 738.5,400.5C 746.087,399.092 753.754,398.425 761.5,398.5C 770.468,398.591 779.135,399.258 787.5,400.5C 786.127,400.343 784.793,400.51 783.5,401C 809.765,409.355 824.931,427.855 829,456.5C 829.719,466.566 829.219,476.566 827.5,486.5C 824.926,495.22 821.926,503.887 818.5,512.5C 816.326,515.515 814.659,518.849 813.5,522.5C 803.515,538.325 791.181,552.158 776.5,564C 771.434,567.522 766.434,571.022 761.5,574.5C 755.339,576.99 749.339,579.657 743.5,582.5C 740.215,582.928 737.215,583.928 734.5,585.5C 723.688,587.168 713.021,588.835 702.5,590.5C 700.983,590.489 699.816,589.823 699,588.5C 698.134,602.111 696.3,615.444 693.5,628.5C 693.543,624.107 693.043,623.774 692,627.5C 681.099,682.483 655.266,728.983 614.5,767C 615.094,767.464 615.761,767.631 616.5,767.5C 599.107,783.088 581.107,797.088 562.5,809.5C 555.329,813.251 548.329,817.251 541.5,821.5C 533.719,825.392 525.719,828.725 517.5,831.5C 517.918,830.778 518.584,830.278 519.5,830C 515.53,830.326 511.53,830.326 507.5,830C 449.906,806.485 403.406,769.318 368,718.5C 356.462,699.937 347.128,680.27 340,659.5C 339.536,660.094 339.369,660.761 339.5,661.5C 338.833,660.833 338.167,660.167 337.5,659.5C 336.523,653.395 335.023,647.395 333,641.5C 332.346,642.696 331.846,642.696 331.5,641.5C 332.331,638.336 331.998,635.336 330.5,632.5C 326.958,611.998 324.958,591.331 324.5,570.5C 324.993,551.484 326.326,532.484 328.5,513.5C 330.893,502.559 333.56,491.559 336.5,480.5C 335.522,479.199 335.855,478.032 337.5,477C 335.902,475.274 336.235,474.441 338.5,474.5C 338.393,476.379 338.893,476.712 340,475.5C 356.176,417.199 390.343,373.199 442.5,343.5C 435.464,327.751 425.297,314.418 412,303.5C 411.536,304.094 411.369,304.761 411.5,305.5C 411.167,305.5 410.833,305.5 410.5,305.5C 409.738,303.738 408.404,302.738 406.5,302.5C 405.738,300.738 404.404,299.738 402.5,299.5C 393.877,293.061 384.21,288.727 373.5,286.5C 365.455,284.872 357.455,282.705 349.5,280C 347.097,277.469 345.43,274.636 344.5,271.5C 344.389,270.883 344.056,270.383 343.5,270C 344.885,266.001 346.551,262.168 348.5,258.5C 351.971,256.287 355.804,254.954 360,254.5C 364.68,255.085 369.346,255.752 374,256.5C 375.226,256.355 376.393,256.022 377.5,255.5C 378.696,255.846 378.696,256.346 377.5,257C 379.813,257.662 382.146,258.162 384.5,258.5 Z" />
  </g>
  <g>
    <path style="opacity:0.004" fill="var(--border-color)"
      d="M 384.5,257.5 C 385.833,258.167 385.833,258.167 384.5,257.5 Z" />
  </g>
  <g>
    <path style="opacity:0.004" fill="var(--border-color)"
      d="M 639.5,256.5 C 640.833,257.167 640.833,257.167 639.5,256.5 Z" />
  </g>
  <g>
    <path style="opacity:0.004" fill="var(--border-color)"
      d="M 384.5,257.5 C 383.833,256.167 383.833,256.167 384.5,257.5 Z" />
  </g>
  <g>
    <path style="opacity:0.008" fill="var(--border-color)"
      d="M 645.5,255.5 C 646.833,256.167 646.833,256.167 645.5,255.5 Z" />
  </g>
  <g>
    <path style="opacity:0.004" fill="var(--border-color)"
      d="M 456.5,255.5 C 457.833,256.167 457.833,256.167 456.5,255.5 Z" />
  </g>
  <g>
    <path style="opacity:0.008" fill="var(--border-color)"
      d="M 379.5,255.5 C 380.833,256.167 380.833,256.167 379.5,255.5 Z" />
  </g>
  <g>
    <path style="opacity:0.004" fill="var(--border-color)"
      d="M 389.5,258.5 C 390.833,259.167 390.833,259.167 389.5,258.5 Z" />
  </g>
  <g>
    <path style="opacity:0.004" fill="var(--border-color)"
      d="M 634.5,259.5 C 633.761,259.631 633.094,259.464 632.5,259C 633.437,258.308 634.103,258.475 634.5,259.5 Z" />
  </g>
  <g>
    <path style="opacity:0.012" fill="var(--border-color)"
      d="M 678.5,260.5 C 679.833,261.167 679.833,261.167 678.5,260.5 Z" />
  </g>
  <g>
    <path style="opacity:0.004" fill="var(--border-color)"
      d="M 502.5,262.5 C 503.833,263.167 503.833,263.167 502.5,262.5 Z" />
  </g>
  <g>
    <path style="opacity:0.004" fill="var(--border-color)"
      d="M 507.5,263.5 C 508.601,262.402 509.934,262.235 511.5,263C 510.207,263.49 508.873,263.657 507.5,263.5 Z" />
  </g>
  <g>
    <path style="opacity:0.008" fill="var(--border-color)"
      d="M 515.5,262.5 C 516.833,263.167 516.833,263.167 515.5,262.5 Z" />
  </g>
  <g>
    <path style="opacity:0.004" fill="var(--border-color)"
      d="M 677.5,262.5 C 678.833,263.167 678.833,263.167 677.5,262.5 Z" />
  </g>
  <g>
    <path style="opacity:0.004" fill="var(--border-color)"
      d="M 615.5,263.5 C 616.833,264.167 616.833,264.167 615.5,263.5 Z" />
  </g>
  <g>
    <path style="opacity:0.004" fill="var(--border-color)"
      d="M 404.5,264.5 C 405.833,265.167 405.833,265.167 404.5,264.5 Z" />
  </g>
  <g>
    <path style="opacity:0.008" fill="var(--border-color)"
      d="M 406.5,265.5 C 407.833,266.167 407.833,266.167 406.5,265.5 Z" />
  </g>
  <g>
    <path style="opacity:0.008" fill="var(--border-color)"
      d="M 617.5,266.5 C 616.761,266.631 616.094,266.464 615.5,266C 616.437,265.308 617.103,265.475 617.5,266.5 Z" />
  </g>
  <g>
    <path style="opacity:0.004" fill="var(--border-color)"
      d="M 344.5,271.5 C 343.833,272.167 343.833,272.167 344.5,271.5 Z" />
  </g>
  <g>
    <path style="opacity:0.024" fill="var(--border-color)"
      d="M 416.5,271.5 C 417.833,272.167 417.833,272.167 416.5,271.5 Z" />
  </g>
  <g>
    <path style="opacity:0.008" fill="var(--border-color)"
      d="M 606.5,272.5 C 605.833,271.167 605.833,271.167 606.5,272.5 Z" />
  </g>
  <g>
    <path style="opacity:0.004" fill="var(--border-color)"
      d="M 603.5,272.5 C 604.833,273.167 604.833,273.167 603.5,272.5 Z" />
  </g>
  <g>
    <path style="opacity:0.004" fill="var(--border-color)"
      d="M 343.5,273.5 C 344.833,274.167 344.833,274.167 343.5,273.5 Z" />
  </g>
  <g>
    <path style="opacity:0.004" fill="var(--border-color)"
      d="M 419.5,273.5 C 420.833,274.167 420.833,274.167 419.5,273.5 Z" />
  </g>
  <g>
    <path style="opacity:0.004" fill="var(--border-color)"
      d="M 603.5,273.5 C 603.5,273.833 603.5,274.167 603.5,274.5C 602.83,274.019 602.83,273.685 603.5,273.5 Z" />
  </g>
  <g>
    <path style="opacity:0.005" fill="var(--border-color)"
      d="M 595.5,280.5 C 594.448,280.649 593.448,280.483 592.5,280C 593.749,279.26 594.749,279.427 595.5,280.5 Z" />
  </g>
  <g>
    <path style="opacity:0.012" fill="var(--border-color)"
      d="M 591.5,281.5 C 592.833,282.167 592.833,282.167 591.5,281.5 Z" />
  </g>
  <g>
    <path style="opacity:0.008" fill="var(--border-color)"
      d="M 670.5,282.5 C 671.833,283.167 671.833,283.167 670.5,282.5 Z" />
  </g>
  <g>
    <path style="opacity:0.004" fill="var(--border-color)"
      d="M 358.5,284.5 C 359.833,285.167 359.833,285.167 358.5,284.5 Z" />
  </g>
  <g>
    <path style="opacity:0.004" fill="var(--border-color)"
      d="M 360.5,284.5 C 361.833,285.167 361.833,285.167 360.5,284.5 Z" />
  </g>
  <g>
    <path style="opacity:0.008" fill="var(--border-color)"
      d="M 662.5,284.5 C 663.833,285.167 663.833,285.167 662.5,284.5 Z" />
  </g>
  <g>
    <path style="opacity:0.02" fill="var(--border-color)"
      d="M 664.5,284.5 C 665.833,285.167 665.833,285.167 664.5,284.5 Z" />
  </g>
  <g>
    <path style="opacity:0.006" fill="var(--border-color)"
      d="M 365.5,286.5 C 365.897,285.475 366.563,285.308 367.5,286C 366.906,286.464 366.239,286.631 365.5,286.5 Z" />
  </g>
  <g>
    <path style="opacity:0.01" fill="var(--border-color)"
      d="M 655.5,286.5 C 655.897,285.475 656.563,285.308 657.5,286C 656.906,286.464 656.239,286.631 655.5,286.5 Z" />
  </g>
  <g>
    <path style="opacity:0.004" fill="var(--border-color)"
      d="M 659.5,285.5 C 660.833,286.167 660.833,286.167 659.5,285.5 Z" />
  </g>
  <g>
    <path style="opacity:0.007" fill="var(--border-color)"
      d="M 373.5,286.5 C 372.054,287.613 370.387,287.78 368.5,287C 370.134,286.506 371.801,286.34 373.5,286.5 Z" />
  </g>
  <g>
    <path style="opacity:0.01" fill="var(--border-color)"
      d="M 655.5,286.5 C 654.399,287.598 653.066,287.765 651.5,287C 652.793,286.51 654.127,286.343 655.5,286.5 Z" />
  </g>
  <g>
    <path style="opacity:0.004" fill="var(--border-color)"
      d="M 586.5,288.5 C 585.833,287.167 585.833,287.167 586.5,288.5 Z" />
  </g>
  <g>
    <path style="opacity:0.004" fill="var(--border-color)"
      d="M 583.5,288.5 C 584.833,289.167 584.833,289.167 583.5,288.5 Z" />
  </g>
  <g>
    <path style="opacity:0.006" fill="var(--border-color)"
      d="M 632.5,293.5 C 632.897,292.475 633.563,292.308 634.5,293C 633.906,293.464 633.239,293.631 632.5,293.5 Z" />
  </g>
  <g>
    <path style="opacity:0.016" fill="var(--border-color)"
      d="M 390.5,293.5 C 391.833,294.167 391.833,294.167 390.5,293.5 Z" />
  </g>
  <g>
    <path style="opacity:0.004" fill="var(--border-color)"
      d="M 392.5,294.5 C 393.833,295.167 393.833,295.167 392.5,294.5 Z" />
  </g>
  <g>
    <path style="opacity:0.012" fill="var(--border-color)"
      d="M 628.5,294.5 C 629.833,295.167 629.833,295.167 628.5,294.5 Z" />
  </g>
  <g>
    <path style="opacity:0.004" fill="var(--border-color)"
      d="M 444.5,295.5 C 445.833,296.167 445.833,296.167 444.5,295.5 Z" />
  </g>
  <g>
    <path style="opacity:0.012" fill="var(--border-color)"
      d="M 446.5,297.5 C 447.833,298.167 447.833,298.167 446.5,297.5 Z" />
  </g>
  <g>
    <path style="opacity:0.013" fill="var(--border-color)"
      d="M 402.5,299.5 C 403.833,302.167 403.167,302.833 400.5,301.5C 400.833,300.5 401.5,299.833 402.5,299.5 Z" />
  </g>
  <g>
    <path style="opacity:0.016" fill="var(--border-color)"
      d="M 400.5,301.5 C 400.631,302.239 400.464,302.906 400,303.5C 399.308,302.563 399.475,301.897 400.5,301.5 Z" />
  </g>
  <g>
    <path style="opacity:0.012" fill="var(--border-color)"
      d="M 406.5,302.5 C 405.833,303.167 405.833,303.167 406.5,302.5 Z" />
  </g>
  <g>
    <path style="opacity:0.004" fill="var(--border-color)"
      d="M 615.5,302.5 C 616.833,303.167 616.833,303.167 615.5,302.5 Z" />
  </g>
  <g>
    <path style="opacity:0.008" fill="var(--border-color)"
      d="M 452.5,304.5 C 451.833,303.167 451.833,303.167 452.5,304.5 Z" />
  </g>
  <g>
    <path style="opacity:0.008" fill="var(--border-color)"
      d="M 568.5,303.5 C 569.833,304.167 569.833,304.167 568.5,303.5 Z" />
  </g>
  <g>
    <path style="opacity:0.004" fill="var(--border-color)"
      d="M 452.5,304.5 C 453.833,305.167 453.833,305.167 452.5,304.5 Z" />
  </g>
  <g>
    <path style="opacity:0.004" fill="var(--border-color)"
      d="M 410.5,305.5 C 409.833,306.167 409.833,306.167 410.5,305.5 Z" />
  </g>
  <g>
    <path style="opacity:0.004" fill="var(--border-color)"
      d="M 407.5,306.5 C 408.833,307.167 408.833,307.167 407.5,306.5 Z" />
  </g>
  <g>
    <path style="opacity:0.004" fill="var(--border-color)"
      d="M 567.5,305.5 C 568.525,305.897 568.692,306.563 568,307.5C 567.536,306.906 567.369,306.239 567.5,305.5 Z" />
  </g>
  <g>
    <path style="opacity:0.016" fill="var(--border-color)"
      d="M 457.5,312.5 C 456.833,311.167 456.833,311.167 457.5,312.5 Z" />
  </g>
  <g>
    <path style="opacity:0.004" fill="var(--border-color)"
      d="M 560.5,311.5 C 561.833,312.167 561.833,312.167 560.5,311.5 Z" />
  </g>
  <g>
    <path style="opacity:0.004" fill="var(--border-color)"
      d="M 566.5,312.5 C 565.833,311.167 565.833,311.167 566.5,312.5 Z" />
  </g>
  <g>
    <path style="opacity:0.004" fill="var(--border-color)"
      d="M 457.5,312.5 C 458.833,313.167 458.833,313.167 457.5,312.5 Z" />
  </g>
  <g>
    <path style="opacity:0.004" fill="var(--border-color)"
      d="M 415.5,314.5 C 416.833,315.167 416.833,315.167 415.5,314.5 Z" />
  </g>
  <g>
    <path style="opacity:0.004" fill="var(--border-color)"
      d="M 422.5,318.5 C 421.833,317.167 421.833,317.167 422.5,318.5 Z" />
  </g>
  <g>
    <path style="opacity:0.004" fill="var(--border-color)"
      d="M 422.5,318.5 C 423.833,319.167 423.833,319.167 422.5,318.5 Z" />
  </g>
  <g>
    <path style="opacity:0.008" fill="var(--border-color)"
      d="M 461.5,318.5 C 462.833,319.167 462.833,319.167 461.5,318.5 Z" />
  </g>
  <g>
    <path style="opacity:0.008" fill="var(--border-color)"
      d="M 598.5,318.5 C 599.833,319.167 599.833,319.167 598.5,318.5 Z" />
  </g>
  <g>
    <path style="opacity:0.008" fill="var(--border-color)"
      d="M 560.5,319.5 C 561.833,320.167 561.833,320.167 560.5,319.5 Z" />
  </g>
  <g>
    <path style="opacity:0.004" fill="var(--border-color)"
      d="M 462.5,321.5 C 463.833,322.167 463.833,322.167 462.5,321.5 Z" />
  </g>
  <g>
    <path style="opacity:0.008" fill="var(--border-color)"
      d="M 423.5,322.5 C 424.833,323.167 424.833,323.167 423.5,322.5 Z" />
  </g>
  <g>
    <path style="opacity:0.012" fill="var(--border-color)"
      d="M 427.5,322.5 C 426.833,323.167 426.833,323.167 427.5,322.5 Z" />
  </g>
  <g>
    <path style="opacity:0.008" fill="var(--border-color)"
      d="M 515.5,325.5 C 516.833,326.167 516.833,326.167 515.5,325.5 Z" />
  </g>
  <g>
    <path style="opacity:0.004" fill="var(--border-color)"
      d="M 423.5,326.5 C 424.833,327.167 424.833,327.167 423.5,326.5 Z" />
  </g>
  <g>
    <path style="opacity:0.984" fill="var(--border-color)"
      d="M 632.5,261.5 C 633.239,261.369 633.906,261.536 634.5,262C 599.191,274.721 574.024,298.221 559,332.5C 558.31,333.738 557.81,333.738 557.5,332.5C 559.962,325.577 562.962,318.91 566.5,312.5C 572.68,304.17 579.346,296.17 586.5,288.5C 589.526,285.805 592.526,283.138 595.5,280.5C 598.473,278.853 601.14,276.853 603.5,274.5C 605.027,274.573 606.027,273.906 606.5,272.5C 610.335,270.75 614.001,268.75 617.5,266.5C 622.406,264.547 627.406,262.88 632.5,261.5 Z" />
  </g>
  <g>
    <path style="opacity:0.004" fill="var(--border-color)"
      d="M 592.5,326.5 C 593.833,327.167 593.833,327.167 592.5,326.5 Z" />
  </g>
  <g>
    <path style="opacity:0.004" fill="var(--border-color)"
      d="M 474.5,327.5 C 475.833,328.167 475.833,328.167 474.5,327.5 Z" />
  </g>
  <g>
    <path style="opacity:0.008" fill="var(--border-color)"
      d="M 476.5,327.5 C 477.833,328.167 477.833,328.167 476.5,327.5 Z" />
  </g>
  <g>
    <path style="opacity:0.006" fill="var(--border-color)"
      d="M 479.5,328.5 C 479.897,327.475 480.563,327.308 481.5,328C 480.906,328.464 480.239,328.631 479.5,328.5 Z" />
  </g>
  <g>
    <path style="opacity:0.012" fill="var(--border-color)"
      d="M 533.5,328.5 C 535.628,327.371 537.961,327.204 540.5,328C 538.19,328.497 535.857,328.663 533.5,328.5 Z" />
  </g>
  <g>
    <path style="opacity:0.004" fill="var(--border-color)"
      d="M 470.5,330.5 C 469.833,329.167 469.833,329.167 470.5,330.5 Z" />
  </g>
  <g>
    <path style="opacity:0.008" fill="var(--border-color)"
      d="M 472.5,330.5 C 472.897,329.475 473.563,329.308 474.5,330C 473.906,330.464 473.239,330.631 472.5,330.5 Z" />
  </g>
  <g>
    <path style="opacity:0.016" fill="var(--border-color)"
      d="M 431.5,330.5 C 432.833,331.167 432.833,331.167 431.5,330.5 Z" />
  </g>
  <g>
    <path style="opacity:0.004" fill="var(--border-color)"
      d="M 470.5,330.5 C 471.167,330.5 471.5,330.833 471.5,331.5C 471.167,331.167 470.833,330.833 470.5,330.5 Z" />
  </g>
  <g>
    <path style="opacity:0.008" fill="var(--border-color)"
      d="M 434.5,332.5 C 434.631,333.239 434.464,333.906 434,334.5C 433.308,333.563 433.475,332.897 434.5,332.5 Z" />
  </g>
  <g>
    <path style="opacity:0.008" fill="var(--border-color)"
      d="M 436.5,344.5 C 435.833,343.167 435.833,343.167 436.5,344.5 Z" />
  </g>
  <g>
    <path style="opacity:0.004" fill="var(--border-color)"
      d="M 596.5,344.5 C 597.833,345.167 597.833,345.167 596.5,344.5 Z" />
  </g>
  <g>
    <path style="opacity:0.008" fill="var(--border-color)"
      d="M 421.5,352.5 C 422.167,351.167 422.833,351.167 423.5,352.5C 422.833,352.5 422.167,352.5 421.5,352.5 Z" />
  </g>
  <g>
    <path style="opacity:0.008" fill="var(--border-color)"
      d="M 604.5,351.5 C 605.833,352.167 605.833,352.167 604.5,351.5 Z" />
  </g>
  <g>
    <path style="opacity:0.012" fill="var(--border-color)"
      d="M 421.5,352.5 C 420.833,353.167 420.833,353.167 421.5,352.5 Z" />
  </g>
  <g>
    <path style="opacity:0.004" fill="var(--border-color)"
      d="M 602.5,352.5 C 603.833,353.167 603.833,353.167 602.5,352.5 Z" />
  </g>
  <g>
    <path style="opacity:0.008" fill="var(--border-color)"
      d="M 416.5,353.5 C 417.833,354.167 417.833,354.167 416.5,353.5 Z" />
  </g>
  <g>
    <path style="opacity:0.008" fill="var(--border-color)"
      d="M 416.5,354.5 C 416.5,354.833 416.5,355.167 416.5,355.5C 415.83,355.019 415.83,354.685 416.5,354.5 Z" />
  </g>
  <g>
    <path style="opacity:0.004" fill="var(--border-color)"
      d="M 416.5,355.5 C 417.167,355.5 417.5,355.833 417.5,356.5C 417.167,356.167 416.833,355.833 416.5,355.5 Z" />
  </g>
  <g>
    <path style="opacity:0.999" fill="var(--body-color)"
      d="M 488.5,356.5 C 489.568,355.566 490.901,355.232 492.5,355.5C 557.6,352.465 606.433,379.132 639,435.5C 652.711,460.633 662.044,487.3 667,515.5C 667.464,514.906 667.631,514.239 667.5,513.5C 668.404,514.209 668.737,515.209 668.5,516.5C 667.839,518.134 667.506,519.967 667.5,522C 669.984,535.434 670.984,548.934 670.5,562.5C 659.229,564.99 647.895,567.156 636.5,569C 637.094,569.464 637.761,569.631 638.5,569.5C 637.432,570.434 636.099,570.768 634.5,570.5C 633.207,569.842 631.707,569.508 630,569.5C 616.885,571.458 603.718,572.958 590.5,574C 592.473,574.495 594.473,574.662 596.5,574.5C 594.052,575.473 591.385,575.806 588.5,575.5C 586.527,574.837 584.361,574.504 582,574.5C 551.013,575.98 520.18,577.313 489.5,578.5C 483.31,578.823 477.31,578.49 471.5,577.5C 476.511,577.666 481.511,577.499 486.5,577C 471.645,576.543 456.812,575.709 442,574.5C 439.31,574.503 436.81,574.836 434.5,575.5C 432.5,575.5 430.5,575.5 428.5,575.5C 428.5,575.167 428.5,574.833 428.5,574.5C 430.199,574.66 431.866,574.494 433.5,574C 420.479,572.65 407.479,571.15 394.5,569.5C 392.955,569.511 391.622,569.844 390.5,570.5C 377.479,568.608 364.479,566.608 351.5,564.5C 351.54,546.141 353.54,528.141 357.5,510.5C 357.369,511.239 357.536,511.906 358,512.5C 364.842,473.937 380.175,439.271 404,408.5C 428.087,380.991 456.254,363.658 488.5,356.5 Z" />
  </g>
  <g>
    <path style="opacity:1" fill="var(--border-color)"
      d="M 338.5,474.5 C 342.665,460.508 347.665,446.841 353.5,433.5C 357.003,428.498 360.003,423.165 362.5,417.5C 363.674,416.486 364.34,415.153 364.5,413.5C 366.063,412.055 367.396,410.389 368.5,408.5C 372.164,403.175 375.83,397.842 379.5,392.5C 382.55,390.451 384.883,387.784 386.5,384.5C 392.167,379.5 397.5,374.167 402.5,368.5C 403.5,368.167 404.167,367.5 404.5,366.5C 406.404,366.262 407.738,365.262 408.5,363.5C 410.23,362.974 411.564,361.974 412.5,360.5C 414.389,359.396 416.055,358.063 417.5,356.5C 419.853,355.66 421.853,354.326 423.5,352.5C 428.009,350.081 432.342,347.414 436.5,344.5C 438.252,344.582 439.252,343.749 439.5,342C 438.194,338.55 436.527,335.384 434.5,332.5C 433.56,330.388 432.394,328.388 431,326.5C 430.333,325.167 429.667,325.167 429,326.5C 430.008,324.634 429.508,323.301 427.5,322.5C 422.871,316.203 417.538,310.537 411.5,305.5C 411.369,304.761 411.536,304.094 412,303.5C 425.297,314.418 435.464,327.751 442.5,343.5C 390.343,373.199 356.176,417.199 340,475.5C 338.893,476.712 338.393,476.379 338.5,474.5 Z" />
  </g>
  <g>
    <path style="opacity:0.008" fill="var(--border-color)"
      d="M 412.5,360.5 C 411.761,360.631 411.094,360.464 410.5,360C 411.437,359.308 412.103,359.475 412.5,360.5 Z" />
  </g>
  <g>
    <path style="opacity:0.996" fill="var(--body-color)"
      d="M 488.5,356.5 C 456.254,363.658 428.087,380.991 404,408.5C 380.175,439.271 364.842,473.937 358,512.5C 357.536,511.906 357.369,511.239 357.5,510.5C 363.67,473.51 378.003,440.177 400.5,410.5C 403.138,407.526 405.805,404.526 408.5,401.5C 411.5,397.833 414.833,394.5 418.5,391.5C 426.845,384.338 435.511,377.671 444.5,371.5C 458.343,364.108 473.01,359.108 488.5,356.5 Z" />
  </g>
  <g>
    <path style="opacity:0.008" fill="var(--border-color)"
      d="M 408.5,363.5 C 407.833,362.167 407.833,362.167 408.5,363.5 Z" />
  </g>
  <g>
    <path style="opacity:0.004" fill="var(--border-color)"
      d="M 404.5,366.5 C 403.833,365.167 403.833,365.167 404.5,366.5 Z" />
  </g>
  <g>
    <path style="opacity:0.004" fill="var(--border-color)"
      d="M 402.5,368.5 C 401.833,367.167 401.833,367.167 402.5,368.5 Z" />
  </g>
  <g>
    <path style="opacity:0.012" fill="var(--border-color)"
      d="M 621.5,367.5 C 622.833,368.167 622.833,368.167 621.5,367.5 Z" />
  </g>
  <g>
    <path style="opacity:0.004" fill="var(--border-color)"
      d="M 625.5,370.5 C 626.833,371.167 626.833,371.167 625.5,370.5 Z" />
  </g>
  <g>
    <path style="opacity:0.004" fill="var(--border-color)"
      d="M 392.5,372.5 C 393.833,373.167 393.833,373.167 392.5,372.5 Z" />
  </g>
  <g>
    <path style="opacity:0.004" fill="var(--border-color)"
      d="M 392.5,375.5 C 393.833,376.167 393.833,376.167 392.5,375.5 Z" />
  </g>
  <g>
    <path style="opacity:0.004" fill="var(--border-color)"
      d="M 392.5,376.5 C 391.833,377.167 391.833,377.167 392.5,376.5 Z" />
  </g>
  <g>
    <path style="opacity:0.008" fill="var(--border-color)"
      d="M 633.5,378.5 C 634.833,379.167 634.833,379.167 633.5,378.5 Z" />
  </g>
  <g>
    <path style="opacity:1" fill="var(--body-color)"
      d="M 624.5,410.5 C 627.765,416.701 631.765,422.368 636.5,427.5C 652.367,454.096 662.7,482.762 667.5,513.5C 667.631,514.239 667.464,514.906 667,515.5C 662.044,487.3 652.711,460.633 639,435.5C 606.433,379.132 557.6,352.465 492.5,355.5C 531.981,350.832 567.314,360.665 598.5,385C 607.698,393.032 616.365,401.532 624.5,410.5 Z" />
  </g>
  <g>
    <path style="opacity:0.004" fill="var(--border-color)"
      d="M 635.5,380.5 C 636.833,381.167 636.833,381.167 635.5,380.5 Z" />
  </g>
  <g>
    <path style="opacity:0.008" fill="var(--border-color)"
      d="M 386.5,384.5 C 385.833,383.167 385.833,383.167 386.5,384.5 Z" />
  </g>
  <g>
    <path style="opacity:0.004" fill="var(--border-color)"
      d="M 379.5,392.5 C 378.833,391.167 378.833,391.167 379.5,392.5 Z" />
  </g>
  <g>
    <path style="opacity:0.004" fill="var(--border-color)"
      d="M 644.5,391.5 C 645.833,392.167 645.833,392.167 644.5,391.5 Z" />
  </g>
  <g>
    <path style="opacity:0.004" fill="var(--border-color)"
      d="M 646.5,393.5 C 647.833,394.167 647.833,394.167 646.5,393.5 Z" />
  </g>
  <g>
    <path style="opacity:1" fill="var(--border-color)"
      d="M 418.5,391.5 C 414.833,394.5 411.5,397.833 408.5,401.5C 407.475,401.103 407.308,400.437 408,399.5C 410.833,396.667 413.667,393.833 416.5,391C 417.437,390.308 418.103,390.475 418.5,391.5 Z" />
  </g>
  <g>
    <path style="opacity:0.004" fill="var(--border-color)"
      d="M 651.5,399.5 C 652.833,400.167 652.833,400.167 651.5,399.5 Z" />
  </g>
  <g>
    <path style="opacity:0.004" fill="var(--border-color)"
      d="M 723.5,399.5 C 724.833,400.167 724.833,400.167 723.5,399.5 Z" />
  </g>
  <g>
    <path style="opacity:0.004" fill="var(--border-color)"
      d="M 730.5,399.5 C 731.833,400.167 731.833,400.167 730.5,399.5 Z" />
  </g>
  <g>
    <path style="opacity:0.004" fill="var(--border-color)"
      d="M 738.5,400.5 C 737.833,399.167 737.833,399.167 738.5,400.5 Z" />
  </g>
  <g>
    <path style="opacity:0.006" fill="var(--border-color)"
      d="M 787.5,400.5 C 788.239,400.369 788.906,400.536 789.5,401C 788.563,401.692 787.897,401.525 787.5,400.5 Z" />
  </g>
  <g>
    <path style="opacity:0.008" fill="var(--border-color)"
      d="M 367.5,401.5 C 368.833,402.167 368.833,402.167 367.5,401.5 Z" />
  </g>
  <g>
    <path style="opacity:0.004" fill="var(--border-color)"
      d="M 729.5,402.5 C 729.897,401.475 730.563,401.308 731.5,402C 730.906,402.464 730.239,402.631 729.5,402.5 Z" />
  </g>
  <g>
    <path style="opacity:0.004" fill="var(--border-color)"
      d="M 790.5,401.5 C 791.833,402.167 791.833,402.167 790.5,401.5 Z" />
  </g>
  <g>
    <path style="opacity:0.008" fill="var(--border-color)"
      d="M 793.5,402.5 C 794.833,403.167 794.833,403.167 793.5,402.5 Z" />
  </g>
  <g>
    <path style="opacity:0.004" fill="var(--border-color)"
      d="M 795.5,403.5 C 796.833,404.167 796.833,404.167 795.5,403.5 Z" />
  </g>
  <g>
    <path style="opacity:1" fill="var(--border-color)"
      d="M 624.5,410.5 C 616.365,401.532 607.698,393.032 598.5,385C 567.314,360.665 531.981,350.832 492.5,355.5C 490.901,355.232 489.568,355.566 488.5,356.5C 473.01,359.108 458.343,364.108 444.5,371.5C 464.722,358.898 486.889,352.565 511,352.5C 558.238,354.033 596.071,373.366 624.5,410.5 Z" />
  </g>
  <g>
    <path style="opacity:0.004" fill="var(--border-color)"
      d="M 360.5,407.5 C 361.833,408.167 361.833,408.167 360.5,407.5 Z" />
  </g>
  <g>
    <path style="opacity:0.016" fill="var(--border-color)"
      d="M 368.5,408.5 C 367.833,407.167 367.833,407.167 368.5,408.5 Z" />
  </g>
  <g>
    <path style="opacity:0.012" fill="var(--border-color)"
      d="M 657.5,408.5 C 656.833,407.167 656.833,407.167 657.5,408.5 Z" />
  </g>
  <g>
    <path style="opacity:0.004" fill="var(--border-color)"
      d="M 712.5,407.5 C 713.833,408.167 713.833,408.167 712.5,407.5 Z" />
  </g>
  <g>
    <path style="opacity:0.012" fill="var(--border-color)"
      d="M 715.5,407.5 C 716.833,408.167 716.833,408.167 715.5,407.5 Z" />
  </g>
  <g>
    <path style="opacity:0.004" fill="var(--border-color)"
      d="M 657.5,408.5 C 658.833,409.167 658.833,409.167 657.5,408.5 Z" />
  </g>
  <g>
    <path style="opacity:0.004" fill="var(--border-color)"
      d="M 713.5,410.5 C 712.833,409.167 712.833,409.167 713.5,410.5 Z" />
  </g>
  <g>
    <path style="opacity:0.004" fill="var(--border-color)"
      d="M 364.5,413.5 C 363.833,412.167 363.833,412.167 364.5,413.5 Z" />
  </g>
  <g>
    <path style="opacity:0.008" fill="var(--border-color)"
      d="M 662.5,416.5 C 661.833,415.167 661.833,415.167 662.5,416.5 Z" />
  </g>
  <g>
    <path style="opacity:0.004" fill="var(--border-color)"
      d="M 699.5,415.5 C 700.833,416.167 700.833,416.167 699.5,415.5 Z" />
  </g>
  <g>
    <path style="opacity:0.012" fill="var(--border-color)"
      d="M 702.5,417.5 C 701.227,416.923 701.227,416.257 702.5,415.5C 703.463,415.97 703.463,416.637 702.5,417.5 Z" />
  </g>
  <g>
    <path style="opacity:0.004" fill="var(--border-color)"
      d="M 362.5,417.5 C 361.833,416.167 361.833,416.167 362.5,417.5 Z" />
  </g>
  <g>
    <path style="opacity:0.008" fill="var(--border-color)"
      d="M 662.5,416.5 C 663.833,417.167 663.833,417.167 662.5,416.5 Z" />
  </g>
  <g>
    <path style="opacity:0.004" fill="var(--border-color)"
      d="M 695.5,415.5 C 697.76,416.238 697.927,417.238 696,418.5C 695.517,417.552 695.351,416.552 695.5,415.5 Z" />
  </g>
  <g>
    <path style="opacity:0.004" fill="var(--border-color)"
      d="M 698.5,417.5 C 699.833,418.167 699.833,418.167 698.5,417.5 Z" />
  </g>
  <g>
    <path style="opacity:0.008" fill="var(--border-color)"
      d="M 359.5,418.5 C 360.833,419.167 360.833,419.167 359.5,418.5 Z" />
  </g>
  <g>
    <path style="opacity:0.004" fill="var(--border-color)"
      d="M 351.5,424.5 C 352.833,425.167 352.833,425.167 351.5,424.5 Z" />
  </g>
  <g>
    <path style="opacity:0.004" fill="var(--border-color)"
      d="M 356.5,424.5 C 357.833,425.167 357.833,425.167 356.5,424.5 Z" />
  </g>
  <g>
    <path style="opacity:0.004" fill="var(--border-color)"
      d="M 819.5,425.5 C 820.833,426.167 820.833,426.167 819.5,425.5 Z" />
  </g>
  <g>
    <path style="opacity:0.004" fill="var(--border-color)"
      d="M 351.5,426.5 C 352.833,427.167 352.833,427.167 351.5,426.5 Z" />
  </g>
  <g>
    <path style="opacity:0.004" fill="var(--border-color)"
      d="M 355.5,426.5 C 356.833,427.167 356.833,427.167 355.5,426.5 Z" />
  </g>
  <g>
    <path style="opacity:0.004" fill="var(--border-color)"
      d="M 822.5,430.5 C 823.833,431.167 823.833,431.167 822.5,430.5 Z" />
  </g>
  <g>
    <path style="opacity:0.008" fill="var(--border-color)"
      d="M 353.5,433.5 C 352.778,433.918 352.278,434.584 352,435.5C 351.251,434.365 351.417,433.365 352.5,432.5C 353.107,432.624 353.44,432.957 353.5,433.5 Z" />
  </g>
  <g>
    <path style="opacity:0.988" fill="var(--border-color)"
      d="M 792.5,435.5 C 778.557,425.947 763.223,423.113 746.5,427C 738.868,429.153 731.535,431.987 724.5,435.5C 744.918,421.629 766.251,420.129 788.5,431C 790.041,432.371 791.375,433.871 792.5,435.5 Z" />
  </g>
  <g>
    <path style="opacity:0.004" fill="var(--border-color)"
      d="M 825.5,436.5 C 826.833,437.167 826.833,437.167 825.5,436.5 Z" />
  </g>
  <g>
    <path style="opacity:0.999" fill="var(--wing-color)"
      d="M 792.5,435.5 C 801.435,447.316 804.601,460.649 802,475.5C 793.523,514.289 771.023,541.456 734.5,557C 722.809,560.893 710.809,562.726 698.5,562.5C 698.822,556.642 698.489,550.975 697.5,545.5C 696.405,528.312 694.072,511.312 690.5,494.5C 688.492,486.803 686.658,479.136 685,471.5C 696.515,457.476 709.681,445.476 724.5,435.5C 731.535,431.987 738.868,429.153 746.5,427C 763.223,423.113 778.557,425.947 792.5,435.5 Z" />
  </g>
  <g>
    <path style="opacity:0.004" fill="var(--border-color)"
      d="M 343.5,439.5 C 344.833,440.167 344.833,440.167 343.5,439.5 Z" />
  </g>
  <g>
    <path style="opacity:0.004" fill="var(--border-color)"
      d="M 348.5,440.5 C 349.833,441.167 349.833,441.167 348.5,440.5 Z" />
  </g>
  <g>
    <path style="opacity:0.008" fill="var(--border-color)"
      d="M 826.5,439.5 C 827.525,439.897 827.692,440.563 827,441.5C 826.536,440.906 826.369,440.239 826.5,439.5 Z" />
  </g>
  <g>
    <path style="opacity:0.004" fill="var(--border-color)"
      d="M 347.5,442.5 C 348.833,443.167 348.833,443.167 347.5,442.5 Z" />
  </g>
  <g>
    <path style="opacity:0.004" fill="var(--border-color)"
      d="M 827.5,442.5 C 828.833,443.167 828.833,443.167 827.5,442.5 Z" />
  </g>
  <g>
    <path style="opacity:0.004" fill="var(--border-color)"
      d="M 830.5,445.5 C 831.833,446.167 831.833,446.167 830.5,445.5 Z" />
  </g>
  <g>
    <path style="opacity:0.998" fill="var(--border-color)"
      d="M 580.5,450.5 C 565.012,442.604 555.345,447.104 551.5,464C 554.503,478.817 563.17,483.65 577.5,478.5C 578.107,478.624 578.44,478.957 578.5,479.5C 577.167,480.167 575.833,480.833 574.5,481.5C 573.209,481.263 572.209,481.596 571.5,482.5C 558.724,482.792 551.724,476.625 550.5,464C 550.387,459.844 551.387,456.011 553.5,452.5C 555.167,451.5 556.5,450.167 557.5,448.5C 565.79,442.898 573.457,443.564 580.5,450.5 Z" />
  </g>
  <g>
    <path style="opacity:0.998" fill="var(--border-color)"
      d="M 580.5,450.5 C 584.274,456.606 585.441,463.273 584,470.5C 583.117,473.102 581.617,475.269 579.5,477C 579.728,477.399 580.062,477.565 580.5,477.5C 580.167,478.5 579.5,479.167 578.5,479.5C 578.44,478.957 578.107,478.624 577.5,478.5C 563.17,483.65 554.503,478.817 551.5,464C 555.345,447.104 565.012,442.604 580.5,450.5 Z" />
  </g>
  <g>
    <path style="opacity:1" fill="var(--body-color)"
      d="M 574.5,481.5 C 575.833,480.833 577.167,480.167 578.5,479.5C 579.5,479.167 580.167,478.5 580.5,477.5C 586.506,471.228 588.006,463.895 585,455.5C 584.004,453.34 582.504,451.673 580.5,450.5C 573.457,443.564 565.79,442.898 557.5,448.5C 556.262,448.19 556.262,447.69 557.5,447C 574.485,439.827 584.819,445.327 588.5,463.5C 588.371,472.77 584.038,479.104 575.5,482.5C 574.893,482.376 574.56,482.043 574.5,481.5 Z" />
  </g>
  <g>
    <path style="opacity:0.004" fill="var(--border-color)"
      d="M 828.5,446.5 C 829.833,447.167 829.833,447.167 828.5,446.5 Z" />
  </g>
  <g>
    <path style="opacity:0.004" fill="var(--border-color)"
      d="M 344.5,450.5 C 345.833,451.167 345.833,451.167 344.5,450.5 Z" />
  </g>
  <g>
    <path style="opacity:0.008" fill="var(--border-color)"
      d="M 829.5,452.5 C 830.833,453.167 830.833,453.167 829.5,452.5 Z" />
  </g>
  <g>
    <path style="opacity:1" fill="var(--body-color)"
      d="M 450.5,482.5 C 465.929,482.571 473.429,474.905 473,459.5C 467.56,445.528 458.06,441.695 444.5,448C 435.366,456.54 434.199,466.04 441,476.5C 443.382,478.389 445.882,480.055 448.5,481.5C 443.025,481.254 439.192,478.254 437,472.5C 432.65,460.204 436.15,451.038 447.5,445C 459.958,441.479 468.791,445.646 474,457.5C 476.189,469.626 471.689,478.126 460.5,483C 456.39,483.806 453.057,483.64 450.5,482.5 Z" />
  </g>
  <g>
    <path style="opacity:0.996" fill="var(--border-color)"
      d="M 450.5,482.5 C 450.158,481.662 449.492,481.328 448.5,481.5C 445.882,480.055 443.382,478.389 441,476.5C 434.199,466.04 435.366,456.54 444.5,448C 458.06,441.695 467.56,445.528 473,459.5C 473.429,474.905 465.929,482.571 450.5,482.5 Z" />
  </g>
  <g>
    <path style="opacity:0.999" fill="var(--border-color)"
      d="M 450.5,446.5 C 467.523,446.526 474.023,454.859 470,471.5C 462.962,481.303 454.129,483.136 443.5,477C 438.335,470.583 437.168,463.416 440,455.5C 442.489,451.168 445.989,448.168 450.5,446.5 Z" />
  </g>
  <g>
    <path style="opacity:0.996" fill="var(--border-color)"
      d="M 580.5,450.5 C 582.504,451.673 584.004,453.34 585,455.5C 588.006,463.895 586.506,471.228 580.5,477.5C 580.062,477.565 579.728,477.399 579.5,477C 581.617,475.269 583.117,473.102 584,470.5C 585.441,463.273 584.274,456.606 580.5,450.5 Z" />
  </g>
  <g>
    <path style="opacity:0.012" fill="var(--border-color)"
      d="M 830.5,462.5 C 831.833,463.167 831.833,463.167 830.5,462.5 Z" />
  </g>
  <g>
    <path style="opacity:1" fill="var(--border-color)"
      d="M 400.5,410.5 C 378.003,440.177 363.67,473.51 357.5,510.5C 353.54,528.141 351.54,546.141 351.5,564.5C 349.988,510.226 364.488,460.56 395,415.5C 396.667,413.5 398.333,411.5 400,409.5C 400.399,409.728 400.565,410.062 400.5,410.5 Z" />
  </g>
  <g>
    <path style="opacity:0.004" fill="var(--border-color)"
      d="M 830.5,466.5 C 831.833,467.167 831.833,467.167 830.5,466.5 Z" />
  </g>
  <g>
    <path style="opacity:0.008" fill="var(--border-color)"
      d="M 335.5,468.5 C 336.833,469.167 336.833,469.167 335.5,468.5 Z" />
  </g>
  <g>
    <path style="opacity:0.004" fill="var(--border-color)"
      d="M 830.5,469.5 C 831.525,469.897 831.692,470.563 831,471.5C 830.536,470.906 830.369,470.239 830.5,469.5 Z" />
  </g>
  <g>
    <path style="opacity:0.006" fill="var(--border-color)"
      d="M 336.5,471.5 C 337.773,472.077 337.773,472.743 336.5,473.5C 335.537,473.03 335.537,472.363 336.5,471.5 Z" />
  </g>
  <g>
    <path style="opacity:0.004" fill="var(--border-color)"
      d="M 830.5,472.5 C 831.833,473.167 831.833,473.167 830.5,472.5 Z" />
  </g>
  <g>
    <path style="opacity:1" fill="var(--body-color)"
      d="M 553.5,452.5 C 551.387,456.011 550.387,459.844 550.5,464C 551.724,476.625 558.724,482.792 571.5,482.5C 564.871,485.12 558.371,482.787 552,475.5C 547.413,467.817 547.413,460.15 552,452.5C 552.69,451.262 553.19,451.262 553.5,452.5 Z" />
  </g>
  <g>
    <path style="opacity:0.004" fill="var(--border-color)"
      d="M 335.5,476.5 C 336.833,477.167 336.833,477.167 335.5,476.5 Z" />
  </g>
  <g>
    <path style="opacity:0.004" fill="var(--border-color)"
      d="M 829.5,478.5 C 830.525,478.897 830.692,479.563 830,480.5C 829.536,479.906 829.369,479.239 829.5,478.5 Z" />
  </g>
  <g>
    <path style="opacity:0.004" fill="var(--border-color)"
      d="M 827.5,486.5 C 828.833,487.167 828.833,487.167 827.5,486.5 Z" />
  </g>
  <g>
    <path style="opacity:0.004" fill="var(--border-color)"
      d="M 827.5,489.5 C 828.833,490.167 828.833,490.167 827.5,489.5 Z" />
  </g>
  <g>
    <path style="opacity:0.004" fill="var(--border-color)"
      d="M 826.5,491.5 C 827.833,492.167 827.833,492.167 826.5,491.5 Z" />
  </g>
  <g>
    <path style="opacity:1" fill="var(--border-color)"
      d="M 636.5,427.5 C 648.184,444.21 656.684,462.543 662,482.5C 669.92,509.276 673.92,536.609 674,564.5C 673.817,561.635 673.317,558.969 672.5,556.5C 672.118,543.065 670.785,529.731 668.5,516.5C 668.737,515.209 668.404,514.209 667.5,513.5C 662.7,482.762 652.367,454.096 636.5,427.5 Z" />
  </g>
  <g>
    <path style="opacity:0.004" fill="var(--border-color)"
      d="M 327.5,497.5 C 328.525,497.897 328.692,498.563 328,499.5C 327.536,498.906 327.369,498.239 327.5,497.5 Z" />
  </g>
  <g>
    <path style="opacity:0.992" fill="var(--border-color)"
      d="M 499.5,501.5 C 497.745,500.928 496.078,500.094 494.5,499C 486.666,497.331 482.332,500.497 481.5,508.5C 483.227,514.729 487.227,518.896 493.5,521C 497.057,522.408 500.724,523.408 504.5,524C 503.552,524.483 502.552,524.649 501.5,524.5C 492.885,523.446 486.052,519.446 481,512.5C 480.503,509.854 480.336,507.187 480.5,504.5C 481.338,504.158 481.672,503.492 481.5,502.5C 484.988,497.811 489.655,496.311 495.5,498C 497.324,498.66 498.657,499.827 499.5,501.5 Z" />
  </g>
  <g>
    <path style="opacity:0.999" fill="var(--border-color)"
      d="M 499.5,501.5 C 505.368,506.547 512.034,507.714 519.5,505C 523.726,502.136 528.226,499.97 533,498.5C 539.858,499.533 542.858,503.533 542,510.5C 538.649,516.61 533.482,520.444 526.5,522C 519.419,523.557 512.419,524.724 505.5,525.5C 503.901,525.768 502.568,525.434 501.5,524.5C 502.552,524.649 503.552,524.483 504.5,524C 500.724,523.408 497.057,522.408 493.5,521C 487.227,518.896 483.227,514.729 481.5,508.5C 482.332,500.497 486.666,497.331 494.5,499C 496.078,500.094 497.745,500.928 499.5,501.5 Z" />
  </g>
  <g>
    <path style="opacity:0.004" fill="var(--border-color)"
      d="M 329.5,499.5 C 330.525,499.897 330.692,500.563 330,501.5C 329.536,500.906 329.369,500.239 329.5,499.5 Z" />
  </g>
  <g>
    <path style="opacity:1" fill="var(--body-color)"
      d="M 524.5,500.5 C 516.435,506.674 508.102,507.007 499.5,501.5C 498.657,499.827 497.324,498.66 495.5,498C 489.655,496.311 484.988,497.811 481.5,502.5C 480.957,502.44 480.624,502.107 480.5,501.5C 483.017,497.824 486.517,495.824 491,495.5C 496.688,497.505 502.188,500.005 507.5,503C 513.344,504.038 518.678,502.871 523.5,499.5C 524.107,499.624 524.44,499.957 524.5,500.5 Z" />
  </g>
  <g>
    <path style="opacity:1" fill="var(--border-color)"
      d="M 505.5,525.5 C 512.419,524.724 519.419,523.557 526.5,522C 533.482,520.444 538.649,516.61 542,510.5C 542.858,503.533 539.858,499.533 533,498.5C 528.226,499.97 523.726,502.136 519.5,505C 512.034,507.714 505.368,506.547 499.5,501.5C 508.102,507.007 516.435,506.674 524.5,500.5C 525.5,500.167 526.167,499.5 526.5,498.5C 541.287,495.784 546.121,501.45 541,515.5C 530.616,523.552 518.783,526.885 505.5,525.5 Z" />
  </g>
  <g>
    <path style="opacity:0.004" fill="var(--border-color)"
      d="M 821.5,506.5 C 822.833,507.167 822.833,507.167 821.5,506.5 Z" />
  </g>
  <g>
    <path style="opacity:0.008" fill="var(--border-color)"
      d="M 328.5,513.5 C 327.475,513.103 327.308,512.437 328,511.5C 328.464,512.094 328.631,512.761 328.5,513.5 Z" />
  </g>
  <g>
    <path style="opacity:0.004" fill="var(--border-color)"
      d="M 818.5,512.5 C 819.833,513.167 819.833,513.167 818.5,512.5 Z" />
  </g>
  <g>
    <path style="opacity:0.996" fill="var(--border-color)"
      d="M 690.5,494.5 C 694.072,511.312 696.405,528.312 697.5,545.5C 697.666,551.176 697.499,556.843 697,562.5C 696.513,540.436 694.013,518.602 689.5,497C 689.528,495.93 689.861,495.097 690.5,494.5 Z" />
  </g>
  <g>
    <path style="opacity:0.008" fill="var(--border-color)"
      d="M 813.5,522.5 C 814.833,523.167 814.833,523.167 813.5,522.5 Z" />
  </g>
  <g>
    <path style="opacity:1" fill="var(--body-color)"
      d="M 480.5,504.5 C 480.336,507.187 480.503,509.854 481,512.5C 486.052,519.446 492.885,523.446 501.5,524.5C 502.568,525.434 503.901,525.768 505.5,525.5C 518.783,526.885 530.616,523.552 541,515.5C 546.121,501.45 541.287,495.784 526.5,498.5C 526.062,498.565 525.728,498.399 525.5,498C 534.398,493.087 540.898,495.254 545,504.5C 546.029,511.942 543.195,517.442 536.5,521C 520.665,529.24 504.665,529.573 488.5,522C 482.769,518.952 479.436,514.285 478.5,508C 478.667,506.833 478.833,505.667 479,504.5C 479.69,503.262 480.19,503.262 480.5,504.5 Z" />
  </g>
  <g>
    <path style="opacity:0.004" fill="var(--border-color)"
      d="M 803.5,537.5 C 804.833,538.167 804.833,538.167 803.5,537.5 Z" />
  </g>
  <g>
    <path style="opacity:0.008" fill="var(--border-color)"
      d="M 323.5,543.5 C 324.598,544.601 324.765,545.934 324,547.5C 323.51,546.207 323.343,544.873 323.5,543.5 Z" />
  </g>
  <g>
    <path style="opacity:1" fill="var(--body-color)"
      d="M 668.5,516.5 C 670.785,529.731 672.118,543.065 672.5,556.5C 672.5,559.167 672.5,561.833 672.5,564.5C 670.265,564.205 668.265,564.539 666.5,565.5C 657.199,567.05 647.866,568.383 638.5,569.5C 637.761,569.631 637.094,569.464 636.5,569C 647.895,567.156 659.229,564.99 670.5,562.5C 670.984,548.934 669.984,535.434 667.5,522C 667.506,519.967 667.839,518.134 668.5,516.5 Z" />
  </g>
  <g>
    <path style="opacity:0.004" fill="var(--border-color)"
      d="M 322.5,568.5 C 323.833,569.167 323.833,569.167 322.5,568.5 Z" />
  </g>
  <g>
    <path style="opacity:0.998" fill="var(--border-color)"
      d="M 351.5,564.5 C 364.479,566.608 377.479,568.608 390.5,570.5C 401.783,572.198 413.117,573.532 424.5,574.5C 423.036,575.16 421.369,575.493 419.5,575.5C 396.417,573.491 373.75,569.824 351.5,564.5 Z" />
  </g>
  <g>
    <path style="opacity:0.004" fill="var(--border-color)"
      d="M 322.5,571.5 C 323.833,572.167 323.833,572.167 322.5,571.5 Z" />
  </g>
  <g>
    <path style="opacity:1" fill="var(--body-color)"
      d="M 390.5,570.5 C 391.622,569.844 392.955,569.511 394.5,569.5C 407.479,571.15 420.479,572.65 433.5,574C 431.866,574.494 430.199,574.66 428.5,574.5C 427.167,574.5 425.833,574.5 424.5,574.5C 413.117,573.532 401.783,572.198 390.5,570.5 Z" />
  </g>
  <g>
    <path style="opacity:0.999" fill="var(--body-color)"
      d="M 634.5,570.5 C 621.925,572.624 609.258,573.958 596.5,574.5C 594.473,574.662 592.473,574.495 590.5,574C 603.718,572.958 616.885,571.458 630,569.5C 631.707,569.508 633.207,569.842 634.5,570.5 Z" />
  </g>
  <g>
    <path style="opacity:0.012" fill="var(--border-color)"
      d="M 765.5,573.5 C 766.833,574.167 766.833,574.167 765.5,573.5 Z" />
  </g>
  <g>
    <path style="opacity:0.999" fill="var(--border-color)"
      d="M 666.5,565.5 C 667.239,565.369 667.906,565.536 668.5,566C 637.662,572.63 606.662,576.13 575.5,576.5C 579.824,576.073 584.158,575.739 588.5,575.5C 591.385,575.806 594.052,575.473 596.5,574.5C 609.258,573.958 621.925,572.624 634.5,570.5C 636.099,570.768 637.432,570.434 638.5,569.5C 647.866,568.383 657.199,567.05 666.5,565.5 Z" />
  </g>
  <g>
    <path style="opacity:0.004" fill="var(--border-color)"
      d="M 761.5,574.5 C 762.833,575.167 762.833,575.167 761.5,574.5 Z" />
  </g>
  <g>
    <path style="opacity:0.992" fill="var(--body-color)"
      d="M 434.5,575.5 C 436.81,574.836 439.31,574.503 442,574.5C 456.812,575.709 471.645,576.543 486.5,577C 481.511,577.499 476.511,577.666 471.5,577.5C 459.119,577.533 446.786,576.866 434.5,575.5 Z" />
  </g>
  <g>
    <path style="opacity:0.996" fill="var(--body-color)"
      d="M 588.5,575.5 C 584.158,575.739 579.824,576.073 575.5,576.5C 572.615,576.194 569.948,576.527 567.5,577.5C 541.507,578.254 515.507,578.588 489.5,578.5C 520.18,577.313 551.013,575.98 582,574.5C 584.361,574.504 586.527,574.837 588.5,575.5 Z" />
  </g>
  <g>
    <path style="opacity:0.999" fill="var(--border-color)"
      d="M 428.5,575.5 C 430.5,575.5 432.5,575.5 434.5,575.5C 446.786,576.866 459.119,577.533 471.5,577.5C 477.31,578.49 483.31,578.823 489.5,578.5C 515.507,578.588 541.507,578.254 567.5,577.5C 551.886,579.355 532.219,580.355 508.5,580.5C 493.159,580.226 477.826,579.726 462.5,579C 449.073,578.594 437.74,577.428 428.5,575.5 Z" />
  </g>
  <g>
    <path style="opacity:0.004" fill="var(--border-color)"
      d="M 743.5,582.5 C 744.833,583.167 744.833,583.167 743.5,582.5 Z" />
  </g>
  <g>
    <path style="opacity:0.004" fill="var(--border-color)"
      d="M 745.5,582.5 C 746.833,583.167 746.833,583.167 745.5,582.5 Z" />
  </g>
  <g>
    <path style="opacity:0.004" fill="var(--border-color)"
      d="M 734.5,585.5 C 735.525,585.897 735.692,586.563 735,587.5C 734.536,586.906 734.369,586.239 734.5,585.5 Z" />
  </g>
  <g>
    <path style="opacity:0.004" fill="var(--border-color)"
      d="M 726.5,587.5 C 727.833,588.167 727.833,588.167 726.5,587.5 Z" />
  </g>
  <g>
    <path style="opacity:0.004" fill="var(--border-color)"
      d="M 720.5,588.5 C 721.833,589.167 721.833,589.167 720.5,588.5 Z" />
  </g>
  <g>
    <path style="opacity:0.016" fill="var(--border-color)"
      d="M 722.5,588.5 C 723.833,589.167 723.833,589.167 722.5,588.5 Z" />
  </g>
  <g>
    <path style="opacity:0.004" fill="var(--border-color)"
      d="M 323.5,589.5 C 324.525,589.897 324.692,590.563 324,591.5C 323.536,590.906 323.369,590.239 323.5,589.5 Z" />
  </g>
  <g>
    <path style="opacity:0.008" fill="var(--border-color)"
      d="M 711.5,589.5 C 712.833,590.167 712.833,590.167 711.5,589.5 Z" />
  </g>
  <g>
    <path style="opacity:0.004" fill="var(--border-color)"
      d="M 713.5,589.5 C 714.833,590.167 714.833,590.167 713.5,589.5 Z" />
  </g>
  <g>
    <path style="opacity:0.004" fill="var(--border-color)"
      d="M 715.5,589.5 C 716.833,590.167 716.833,590.167 715.5,589.5 Z" />
  </g>
  <g>
    <path style="opacity:0.004" fill="var(--border-color)"
      d="M 702.5,590.5 C 703.833,591.167 703.833,591.167 702.5,590.5 Z" />
  </g>
  <g>
    <path style="opacity:0.004" fill="var(--border-color)"
      d="M 323.5,593.5 C 324.833,594.167 324.833,594.167 323.5,593.5 Z" />
  </g>
  <g>
    <path style="opacity:0.008" fill="var(--border-color)"
      d="M 324.5,604.5 C 325.833,605.167 325.833,605.167 324.5,604.5 Z" />
  </g>
  <g>
    <path style="opacity:0.004" fill="var(--border-color)"
      d="M 327.5,624.5 C 328.833,625.167 328.833,625.167 327.5,624.5 Z" />
  </g>
  <g>
    <path style="opacity:0.999" fill="var(--body-color)"
      d="M 417.5,632.5 C 436.562,635.219 455.562,637.219 474.5,638.5C 472.143,638.337 469.81,638.503 467.5,639C 504.181,641.051 540.848,640.717 577.5,638C 586.606,637.355 593.606,636.188 598.5,634.5C 599.568,633.566 600.901,633.232 602.5,633.5C 603.622,634.156 604.955,634.489 606.5,634.5C 615.366,633.328 624.199,631.994 633,630.5C 633.873,630.735 634.707,631.069 635.5,631.5C 636.354,630.478 637.354,629.645 638.5,629C 637.552,628.517 636.552,628.351 635.5,628.5C 636.568,627.566 637.901,627.232 639.5,627.5C 640.097,628.139 640.93,628.472 642,628.5C 649.834,626.767 657.667,625.1 665.5,623.5C 662.018,640.761 656.685,657.428 649.5,673.5C 644.566,675.314 640.233,676.981 636.5,678.5C 636.158,679.338 635.492,679.672 634.5,679.5C 633.726,678.853 632.726,678.52 631.5,678.5C 616.247,681.542 600.913,684.042 585.5,686C 586.448,686.483 587.448,686.649 588.5,686.5C 574.366,688.422 560.033,689.755 545.5,690.5C 522.833,689.167 500.167,689.167 477.5,690.5C 474.833,690.5 472.167,690.5 469.5,690.5C 467.735,689.539 465.735,689.205 463.5,689.5C 460.287,689.81 457.287,689.477 454.5,688.5C 456.199,688.66 457.866,688.494 459.5,688C 431.196,685.616 403.196,681.283 375.5,675C 372.472,670.012 369.805,665.512 367.5,661.5C 366.662,661.158 366.328,660.492 366.5,659.5C 367.124,659.083 367.457,658.416 367.5,657.5C 363.251,646.505 360.251,635.172 358.5,623.5C 374.97,627.616 391.636,630.783 408.5,633C 411.696,633.805 414.696,633.638 417.5,632.5 Z" />
  </g>
  <g>
    <path style="opacity:0.004" fill="var(--border-color)"
      d="M 328.5,628.5 C 329.833,629.167 329.833,629.167 328.5,628.5 Z" />
  </g>
  <g>
    <path style="opacity:0.004" fill="var(--border-color)"
      d="M 694.5,630.5 C 695.833,631.167 695.833,631.167 694.5,630.5 Z" />
  </g>
  <g>
    <path style="opacity:0.005" fill="var(--border-color)"
      d="M 330.5,632.5 C 330.288,636.315 329.622,636.315 328.5,632.5C 328.667,631.833 328.833,631.167 329,630.5C 329.278,631.416 329.778,632.082 330.5,632.5 Z" />
  </g>
  <g>
    <path style="opacity:0.998" fill="var(--body-color)"
      d="M 635.5,628.5 C 636.552,628.351 637.552,628.517 638.5,629C 637.354,629.645 636.354,630.478 635.5,631.5C 634.707,631.069 633.873,630.735 633,630.5C 624.199,631.994 615.366,633.328 606.5,634.5C 604.955,634.489 603.622,634.156 602.5,633.5C 613.478,631.726 624.478,630.059 635.5,628.5 Z" />
  </g>
  <g>
    <path style="opacity:1" fill="var(--body-color)"
      d="M 357.5,621.5 C 377.261,626.452 397.261,630.119 417.5,632.5C 414.696,633.638 411.696,633.805 408.5,633C 391.636,630.783 374.97,627.616 358.5,623.5C 360.251,635.172 363.251,646.505 367.5,657.5C 367.457,658.416 367.124,659.083 366.5,659.5C 362.079,647.483 358.745,635.15 356.5,622.5C 356.5,621.833 356.833,621.5 357.5,621.5 Z" />
  </g>
  <g>
    <path style="opacity:0.996" fill="var(--border-color)"
      d="M 666.5,621.5 C 657.535,623.658 648.535,625.658 639.5,627.5C 637.901,627.232 636.568,627.566 635.5,628.5C 624.478,630.059 613.478,631.726 602.5,633.5C 600.901,633.232 599.568,633.566 598.5,634.5C 557.251,638.049 515.918,639.382 474.5,638.5C 455.562,637.219 436.562,635.219 417.5,632.5C 397.261,630.119 377.261,626.452 357.5,621.5C 356.537,620.637 356.537,619.97 357.5,619.5C 409.387,632.089 462.054,638.089 515.5,637.5C 565.834,637.611 615.5,631.944 664.5,620.5C 665.416,620.543 666.083,620.876 666.5,621.5 Z" />
  </g>
  <g>
    <path style="opacity:0.004" fill="var(--border-color)"
      d="M 327.5,636.5 C 328.833,637.167 328.833,637.167 327.5,636.5 Z" />
  </g>
  <g>
    <path style="opacity:1" fill="var(--body-color)"
      d="M 666.5,621.5 C 667.167,621.5 667.5,621.833 667.5,622.5C 663.783,641.152 657.783,658.985 649.5,676C 645.246,677.314 640.913,678.147 636.5,678.5C 640.233,676.981 644.566,675.314 649.5,673.5C 656.685,657.428 662.018,640.761 665.5,623.5C 657.667,625.1 649.834,626.767 642,628.5C 640.93,628.472 640.097,628.139 639.5,627.5C 648.535,625.658 657.535,623.658 666.5,621.5 Z" />
  </g>
  <g>
    <path style="opacity:0.012" fill="var(--border-color)"
      d="M 330.5,638.5 C 331.833,639.167 331.833,639.167 330.5,638.5 Z" />
  </g>
  <g>
    <path style="opacity:0.004" fill="var(--border-color)"
      d="M 692.5,638.5 C 693.833,639.167 693.833,639.167 692.5,638.5 Z" />
  </g>
  <g>
    <path style="opacity:1" fill="var(--body-color)"
      d="M 598.5,634.5 C 593.606,636.188 586.606,637.355 577.5,638C 540.848,640.717 504.181,641.051 467.5,639C 469.81,638.503 472.143,638.337 474.5,638.5C 515.918,639.382 557.251,638.049 598.5,634.5 Z" />
  </g>
  <g>
    <path style="opacity:0.004" fill="var(--border-color)"
      d="M 335.5,655.5 C 336.833,656.167 336.833,656.167 335.5,655.5 Z" />
  </g>
  <g>
    <path style="opacity:1" fill="var(--border-color)"
      d="M 667.5,622.5 C 668.124,622.917 668.457,623.584 668.5,624.5C 664.972,642.918 658.972,660.418 650.5,677C 633.625,681.988 616.625,684.821 599.5,685.5C 611.212,683.758 622.879,681.758 634.5,679.5C 635.492,679.672 636.158,679.338 636.5,678.5C 640.913,678.147 645.246,677.314 649.5,676C 657.783,658.985 663.783,641.152 667.5,622.5 Z" />
  </g>
  <g>
    <path style="opacity:0.008" fill="var(--border-color)"
      d="M 336.5,659.5 C 335.833,658.167 335.833,658.167 336.5,659.5 Z" />
  </g>
  <g>
    <path style="opacity:0.008" fill="var(--border-color)"
      d="M 336.5,659.5 C 336.833,659.5 337.167,659.5 337.5,659.5C 337.5,660.5 337.5,661.5 337.5,662.5C 336.596,661.791 336.263,660.791 336.5,659.5 Z" />
  </g>
  <g>
    <path style="opacity:0.012" fill="var(--border-color)"
      d="M 337.5,662.5 C 338.525,662.897 338.692,663.563 338,664.5C 337.536,663.906 337.369,663.239 337.5,662.5 Z" />
  </g>
  <g>
    <path style="opacity:0.008" fill="var(--border-color)"
      d="M 685.5,662.5 C 686.525,662.897 686.692,663.563 686,664.5C 685.536,663.906 685.369,663.239 685.5,662.5 Z" />
  </g>
  <g>
    <path style="opacity:0.008" fill="var(--border-color)"
      d="M 335.5,663.5 C 336.267,664.172 336.934,665.005 337.5,666C 335.939,666.188 335.272,665.355 335.5,663.5 Z" />
  </g>
  <g>
    <path style="opacity:0.008" fill="var(--border-color)"
      d="M 338.5,665.5 C 339.833,666.167 339.833,666.167 338.5,665.5 Z" />
  </g>
  <g>
    <path style="opacity:0.004" fill="var(--border-color)"
      d="M 684.5,666.5 C 685.833,667.167 685.833,667.167 684.5,666.5 Z" />
  </g>
  <g>
    <path style="opacity:0.016" fill="var(--border-color)"
      d="M 340.5,670.5 C 339.833,669.167 339.833,669.167 340.5,670.5 Z" />
  </g>
  <g>
    <path style="opacity:0.004" fill="var(--border-color)"
      d="M 340.5,670.5 C 340.833,670.5 341.167,670.5 341.5,670.5C 341.315,671.17 340.981,671.17 340.5,670.5 Z" />
  </g>
  <g>
    <path style="opacity:1" fill="var(--border-color)"
      d="M 356.5,622.5 C 358.745,635.15 362.079,647.483 366.5,659.5C 366.328,660.492 366.662,661.158 367.5,661.5C 369.01,666.528 371.01,671.362 373.5,676C 384.049,678.805 394.716,680.971 405.5,682.5C 403.372,683.629 401.039,683.796 398.5,683C 389.489,681.334 380.656,679.167 372,676.5C 363.284,658.692 357.618,640.025 355,620.5C 355.278,621.416 355.778,622.082 356.5,622.5 Z" />
  </g>
  <g>
    <path style="opacity:0.004" fill="var(--border-color)"
      d="M 680.5,676.5 C 681.833,677.167 681.833,677.167 680.5,676.5 Z" />
  </g>
  <g>
    <path style="opacity:1" fill="var(--body-color)"
      d="M 454.5,688.5 C 451.833,688.5 449.167,688.5 446.5,688.5C 445.081,687.549 443.415,687.216 441.5,687.5C 430.453,686.541 419.453,685.207 408.5,683.5C 407.791,682.596 406.791,682.263 405.5,682.5C 394.716,680.971 384.049,678.805 373.5,676C 371.01,671.362 369.01,666.528 367.5,661.5C 369.805,665.512 372.472,670.012 375.5,675C 403.196,681.283 431.196,685.616 459.5,688C 457.866,688.494 456.199,688.66 454.5,688.5 Z" />
  </g>
  <g>
    <path style="opacity:0.008" fill="var(--border-color)"
      d="M 343.5,679.5 C 344.833,680.167 344.833,680.167 343.5,679.5 Z" />
  </g>
  <g>
    <path style="opacity:0.008" fill="var(--border-color)"
      d="M 344.5,681.5 C 345.833,682.167 345.833,682.167 344.5,681.5 Z" />
  </g>
  <g>
    <path style="opacity:0.004" fill="var(--border-color)"
      d="M 345.5,683.5 C 346.833,684.167 346.833,684.167 345.5,683.5 Z" />
  </g>
  <g>
    <path style="opacity:0.996" fill="var(--body-color)"
      d="M 634.5,679.5 C 622.879,681.758 611.212,683.758 599.5,685.5C 597.901,685.232 596.568,685.566 595.5,686.5C 593.167,686.5 590.833,686.5 588.5,686.5C 587.448,686.649 586.448,686.483 585.5,686C 600.913,684.042 616.247,681.542 631.5,678.5C 632.726,678.52 633.726,678.853 634.5,679.5 Z" />
  </g>
  <g>
    <path style="opacity:1" fill="var(--border-color)"
      d="M 408.5,683.5 C 419.453,685.207 430.453,686.541 441.5,687.5C 440.378,688.156 439.045,688.489 437.5,688.5C 432.509,687.91 427.509,687.41 422.5,687C 416.333,686.39 411.666,685.223 408.5,683.5 Z" />
  </g>
  <g>
    <path style="opacity:0.012" fill="var(--border-color)"
      d="M 346.5,685.5 C 347.833,686.167 347.833,686.167 346.5,685.5 Z" />
  </g>
  <g>
    <path style="opacity:0.008" fill="var(--border-color)"
      d="M 343.5,686.5 C 344.833,687.167 344.833,687.167 343.5,686.5 Z" />
  </g>
  <g>
    <path style="opacity:1" fill="var(--border-color)"
      d="M 446.5,688.5 C 449.167,688.5 451.833,688.5 454.5,688.5C 457.287,689.477 460.287,689.81 463.5,689.5C 456.628,690.749 449.628,690.582 442.5,689C 443.793,688.51 445.127,688.343 446.5,688.5 Z" />
  </g>
  <g>
    <path style="opacity:0.991" fill="var(--body-color)"
      d="M 477.5,690.5 C 500.167,689.167 522.833,689.167 545.5,690.5C 522.828,691.782 500.161,691.782 477.5,690.5 Z" />
  </g>
  <g>
    <path style="opacity:1" fill="var(--border-color)"
      d="M 588.5,686.5 C 590.833,686.5 593.167,686.5 595.5,686.5C 589.925,688.158 582.259,689.325 572.5,690C 536.854,692.833 501.188,693.166 465.5,691C 466.793,690.51 468.127,690.343 469.5,690.5C 472.167,690.5 474.833,690.5 477.5,690.5C 500.161,691.782 522.828,691.782 545.5,690.5C 560.033,689.755 574.366,688.422 588.5,686.5 Z" />
  </g>
  <g>
    <path style="opacity:0.012" fill="var(--border-color)"
      d="M 352.5,695.5 C 352.5,696.167 352.5,696.833 352.5,697.5C 351.167,696.833 351.167,696.167 352.5,695.5 Z" />
  </g>
  <g>
    <path style="opacity:1" fill="var(--border-color)"
      d="M 693.5,628.5 C 686.159,668.501 670.159,704.501 645.5,736.5C 637.862,745.141 630.195,753.808 622.5,762.5C 620.5,764.167 618.5,765.833 616.5,767.5C 615.761,767.631 615.094,767.464 614.5,767C 655.266,728.983 681.099,682.483 692,627.5C 693.043,623.774 693.543,624.107 693.5,628.5 Z" />
  </g>
  <g>
    <path style="opacity:0.008" fill="var(--border-color)"
      d="M 668.5,702.5 C 669.833,703.167 669.833,703.167 668.5,702.5 Z" />
  </g>
  <g>
    <path style="opacity:0.012" fill="var(--border-color)"
      d="M 361.5,711.5 C 361.328,712.492 361.662,713.158 362.5,713.5C 362.5,713.833 362.5,714.167 362.5,714.5C 361.5,714.5 360.5,714.5 359.5,714.5C 359.285,712.821 359.952,711.821 361.5,711.5 Z" />
  </g>
  <g>
    <path style="opacity:0.008" fill="var(--border-color)"
      d="M 360.5,715.5 C 361.833,716.167 361.833,716.167 360.5,715.5 Z" />
  </g>
  <g>
    <path style="opacity:0.004" fill="var(--border-color)"
      d="M 661.5,715.5 C 662.833,716.167 662.833,716.167 661.5,715.5 Z" />
  </g>
  <g>
    <path style="opacity:0.004" fill="var(--border-color)"
      d="M 360.5,716.5 C 359.833,717.167 359.833,717.167 360.5,716.5 Z" />
  </g>
  <g>
    <path style="opacity:0.008" fill="var(--border-color)"
      d="M 363.5,716.5 C 363.833,716.5 364.167,716.5 364.5,716.5C 364.328,717.492 364.662,718.158 365.5,718.5C 365.44,719.043 365.107,719.376 364.5,719.5C 363.614,718.675 363.281,717.675 363.5,716.5 Z" />
  </g>
  <g>
    <path style="opacity:0.016" fill="var(--border-color)"
      d="M 368.5,722.5 C 367.833,723.167 367.833,723.167 368.5,722.5 Z" />
  </g>
  <g>
    <path style="opacity:0.02" fill="var(--border-color)"
      d="M 369.5,724.5 C 368.833,725.167 368.833,725.167 369.5,724.5 Z" />
  </g>
  <g>
    <path style="opacity:0.004" fill="var(--border-color)"
      d="M 367.5,726.5 C 368.833,727.167 368.833,727.167 367.5,726.5 Z" />
  </g>
  <g>
    <path style="opacity:0.004" fill="var(--border-color)"
      d="M 369.5,726.5 C 370.833,727.167 370.833,727.167 369.5,726.5 Z" />
  </g>
  <g>
    <path style="opacity:0.004" fill="var(--border-color)"
      d="M 645.5,736.5 C 646.833,737.167 646.833,737.167 645.5,736.5 Z" />
  </g>
  <g>
    <path style="opacity:0.008" fill="var(--border-color)"
      d="M 376.5,739.5 C 375.833,738.167 375.833,738.167 376.5,739.5 Z" />
  </g>
  <g>
    <path style="opacity:0.004" fill="var(--border-color)"
      d="M 377.5,739.5 C 377.842,738.662 378.508,738.328 379.5,738.5C 379.158,739.338 378.492,739.672 377.5,739.5 Z" />
  </g>
  <g>
    <path style="opacity:0.004" fill="var(--border-color)"
      d="M 376.5,739.5 C 376.833,739.5 377.167,739.5 377.5,739.5C 377.167,742.167 376.833,742.167 376.5,739.5 Z" />
  </g>
  <g>
    <path style="opacity:0.012" fill="var(--border-color)"
      d="M 381.5,740.5 C 380.833,741.167 380.833,741.167 381.5,740.5 Z" />
  </g>
  <g>
    <path style="opacity:0.996" fill="var(--border-color)"
      d="M 419.5,741.5 C 420.097,740.861 420.93,740.528 422,740.5C 438.425,743.227 454.925,745.394 471.5,747C 469.527,747.495 467.527,747.662 465.5,747.5C 462.833,747.5 460.167,747.5 457.5,747.5C 456.081,746.549 454.415,746.216 452.5,746.5C 441.419,745.298 430.419,743.631 419.5,741.5 Z" />
  </g>
  <g>
    <path style="opacity:0.004" fill="var(--border-color)"
      d="M 375.5,742.5 C 376.833,743.167 376.833,743.167 375.5,742.5 Z" />
  </g>
  <g>
    <path style="opacity:0.996" fill="var(--border-color)"
      d="M 602.5,741.5 C 587.03,744.726 571.363,746.726 555.5,747.5C 569.192,745.476 584.192,743.142 600.5,740.5C 601.416,740.543 602.083,740.876 602.5,741.5 Z" />
  </g>
  <g>
    <path style="opacity:0.004" fill="var(--border-color)"
      d="M 385.5,745.5 C 385.5,746.167 385.833,746.5 386.5,746.5C 386.5,746.833 386.5,747.167 386.5,747.5C 384.576,747.289 384.243,746.623 385.5,745.5 Z" />
  </g>
  <g>
    <path style="opacity:0.999" fill="var(--body-color)"
      d="M 452.5,746.5 C 454.415,746.216 456.081,746.549 457.5,747.5C 456.127,747.343 454.793,747.51 453.5,748C 485.095,751.715 516.762,752.381 548.5,750C 546.19,749.503 543.857,749.337 541.5,749.5C 543.948,748.527 546.615,748.194 549.5,748.5C 564.988,749.26 580.488,747.926 596,744.5C 596.833,744.667 597.667,744.833 598.5,745C 596.833,746.667 595.167,748.333 593.5,750C 593.728,750.399 594.062,750.565 594.5,750.5C 588.132,756.87 581.465,762.87 574.5,768.5C 570.246,770.749 566.246,773.415 562.5,776.5C 562.103,775.475 561.437,775.308 560.5,776C 546.317,785.93 531.317,794.596 515.5,802C 513.5,802.667 511.5,802.667 509.5,802C 477.917,787.733 449.583,768.733 424.5,745C 432.332,745.451 440.165,746.284 448,747.5C 449.707,747.492 451.207,747.158 452.5,746.5 Z" />
  </g>
  <g>
    <path style="opacity:0.004" fill="var(--border-color)"
      d="M 386.5,747.5 C 386.833,747.5 387.167,747.5 387.5,747.5C 387.315,748.17 386.981,748.17 386.5,747.5 Z" />
  </g>
  <g>
    <path style="opacity:1" fill="var(--body-color)"
      d="M 602.5,741.5 C 603.167,741.5 603.5,741.833 603.5,742.5C 600.5,745.167 597.5,747.833 594.5,750.5C 594.062,750.565 593.728,750.399 593.5,750C 595.167,748.333 596.833,746.667 598.5,745C 597.667,744.833 596.833,744.667 596,744.5C 580.488,747.926 564.988,749.26 549.5,748.5C 550.167,748.5 550.833,748.5 551.5,748.5C 553.099,748.768 554.432,748.434 555.5,747.5C 571.363,746.726 587.03,744.726 602.5,741.5 Z" />
  </g>
  <g>
    <path style="opacity:0.997" fill="var(--border-color)"
      d="M 473.5,748.5 C 499.5,748.5 525.5,748.5 551.5,748.5C 550.833,748.5 550.167,748.5 549.5,748.5C 546.615,748.194 543.948,748.527 541.5,749.5C 518.814,749.768 496.147,749.435 473.5,748.5 Z" />
  </g>
  <g>
    <path style="opacity:1" fill="var(--body-color)"
      d="M 457.5,747.5 C 460.167,747.5 462.833,747.5 465.5,747.5C 467.948,748.473 470.615,748.806 473.5,748.5C 496.147,749.435 518.814,749.768 541.5,749.5C 543.857,749.337 546.19,749.503 548.5,750C 516.762,752.381 485.095,751.715 453.5,748C 454.793,747.51 456.127,747.343 457.5,747.5 Z" />
  </g>
  <g>
    <path style="opacity:1" fill="var(--border-color)"
      d="M 422.5,745.5 C 427.86,750.528 433.193,755.528 438.5,760.5C 432.138,756.65 426.471,751.816 421.5,746C 421.728,745.601 422.062,745.435 422.5,745.5 Z" />
  </g>
  <g>
    <path style="opacity:0.004" fill="var(--border-color)"
      d="M 392.5,753.5 C 392.5,754.167 392.833,754.5 393.5,754.5C 393.44,755.043 393.107,755.376 392.5,755.5C 391.227,754.743 391.227,754.077 392.5,753.5 Z" />
  </g>
  <g>
    <path style="opacity:0.992" fill="var(--body-color)"
      d="M 419.5,741.5 C 430.419,743.631 441.419,745.298 452.5,746.5C 451.207,747.158 449.707,747.492 448,747.5C 440.165,746.284 432.332,745.451 424.5,745C 449.583,768.733 477.917,787.733 509.5,802C 511.5,802.667 513.5,802.667 515.5,802C 531.317,794.596 546.317,785.93 560.5,776C 561.437,775.308 562.103,775.475 562.5,776.5C 559.527,778.147 556.86,780.147 554.5,782.5C 543.554,788.643 532.554,794.809 521.5,801C 518.376,802.314 515.209,803.48 512,804.5C 503.098,800.632 494.265,796.632 485.5,792.5C 469.322,782.578 453.655,771.911 438.5,760.5C 433.193,755.528 427.86,750.528 422.5,745.5C 421.5,744.167 420.5,742.833 419.5,741.5 Z" />
  </g>
  <g>
    <path style="opacity:1" fill="var(--border-color)"
      d="M 603.5,742.5 C 600.407,747.136 596.407,751.636 591.5,756C 585.937,760.409 580.271,764.576 574.5,768.5C 581.465,762.87 588.132,756.87 594.5,750.5C 597.5,747.833 600.5,745.167 603.5,742.5 Z" />
  </g>
  <g>
    <path style="opacity:0.004" fill="var(--border-color)"
      d="M 630.5,756.5 C 631.833,757.167 631.833,757.167 630.5,756.5 Z" />
  </g>
  <g>
    <path style="opacity:0.012" fill="var(--border-color)"
      d="M 397.5,758.5 C 396.833,759.167 396.833,759.167 397.5,758.5 Z" />
  </g>
  <g>
    <path style="opacity:0.004" fill="var(--border-color)"
      d="M 622.5,762.5 C 623.833,763.167 623.833,763.167 622.5,762.5 Z" />
  </g>
  <g>
    <path style="opacity:0.016" fill="var(--border-color)"
      d="M 400.5,761.5 C 400.5,762.167 400.833,762.5 401.5,762.5C 402.973,764.593 402.473,766.26 400,767.5C 400.338,765.357 400.505,763.357 400.5,761.5 Z" />
  </g>
  <g>
    <path style="opacity:0.012" fill="var(--border-color)"
      d="M 405.5,766.5 C 404.833,767.167 404.833,767.167 405.5,766.5 Z" />
  </g>
  <g>
    <path style="opacity:0.004" fill="var(--border-color)"
      d="M 614.5,770.5 C 615.833,771.167 615.833,771.167 614.5,770.5 Z" />
  </g>
  <g>
    <path style="opacity:0.005" fill="var(--border-color)"
      d="M 409.5,770.5 C 411.312,774.096 410.646,774.929 407.5,773C 408.066,772.005 408.733,771.172 409.5,770.5 Z" />
  </g>
  <g>
    <path style="opacity:0.008" fill="var(--border-color)"
      d="M 412.5,773.5 C 411.833,774.167 411.833,774.167 412.5,773.5 Z" />
  </g>
  <g>
    <path style="opacity:0.004" fill="var(--border-color)"
      d="M 414.5,774.5 C 413.833,775.167 413.833,775.167 414.5,774.5 Z" />
  </g>
  <g>
    <path style="opacity:0.004" fill="var(--border-color)"
      d="M 420.5,780.5 C 419.833,781.167 419.833,781.167 420.5,780.5 Z" />
  </g>
  <g>
    <path style="opacity:0.007" fill="var(--border-color)"
      d="M 415.5,782.5 C 416.077,781.227 416.743,781.227 417.5,782.5C 417.03,783.463 416.363,783.463 415.5,782.5 Z" />
  </g>
  <g>
    <path style="opacity:0.008" fill="var(--border-color)"
      d="M 419.5,781.5 C 418.833,782.167 418.833,782.167 419.5,781.5 Z" />
  </g>
  <g>
    <path style="opacity:0.004" fill="var(--border-color)"
      d="M 425.5,784.5 C 424.833,785.167 424.833,785.167 425.5,784.5 Z" />
  </g>
  <g>
    <path style="opacity:0.004" fill="var(--border-color)"
      d="M 595.5,789.5 C 596.833,790.167 596.833,790.167 595.5,789.5 Z" />
  </g>
  <g>
    <path style="opacity:0.004" fill="var(--border-color)"
      d="M 429.5,790.5 C 430.833,791.167 430.833,791.167 429.5,790.5 Z" />
  </g>
  <g>
    <path style="opacity:0.996" fill="var(--border-color)"
      d="M 554.5,782.5 C 541.37,792.153 527.203,800.153 512,806.5C 502.676,802.471 493.843,797.804 485.5,792.5C 494.265,796.632 503.098,800.632 512,804.5C 515.209,803.48 518.376,802.314 521.5,801C 532.554,794.809 543.554,788.643 554.5,782.5 Z" />
  </g>
  <g>
    <path style="opacity:0.004" fill="var(--border-color)"
      d="M 586.5,793.5 C 587.833,794.167 587.833,794.167 586.5,793.5 Z" />
  </g>
  <g>
    <path style="opacity:0.004" fill="var(--border-color)"
      d="M 441.5,798.5 C 442.833,799.167 442.833,799.167 441.5,798.5 Z" />
  </g>
  <g>
    <path style="opacity:0.02" fill="var(--border-color)"
      d="M 444.5,798.5 C 443.833,799.167 443.833,799.167 444.5,798.5 Z" />
  </g>
  <g>
    <path style="opacity:0.98" fill="var(--border-color)"
      d="M 517.5,831.5 C 512.138,832.667 506.804,832.334 501.5,830.5C 497.414,828.13 493.081,826.13 488.5,824.5C 485.485,822.326 482.151,820.659 478.5,819.5C 475.669,817.583 472.669,815.917 469.5,814.5C 466.992,812.076 463.992,810.41 460.5,809.5C 455.552,805.352 450.218,801.686 444.5,798.5C 438.19,793.865 431.857,789.198 425.5,784.5C 424.421,782.457 422.754,781.124 420.5,780.5C 418.833,778.167 416.833,776.167 414.5,774.5C 414.158,773.662 413.492,773.328 412.5,773.5C 411.833,772.167 410.833,771.167 409.5,770.5C 408.5,768.833 407.167,767.5 405.5,766.5C 404.5,764.833 403.167,763.5 401.5,762.5C 400.833,762.5 400.5,762.167 400.5,761.5C 399.833,760.167 398.833,759.167 397.5,758.5C 396.5,756.833 395.167,755.5 393.5,754.5C 392.833,754.5 392.5,754.167 392.5,753.5C 391.557,750.891 389.89,748.891 387.5,747.5C 387.5,746.833 387.167,746.5 386.5,746.5C 385.833,746.5 385.5,746.167 385.5,745.5C 384.396,743.611 383.063,741.945 381.5,740.5C 381.167,739.5 380.5,738.833 379.5,738.5C 376.655,733.473 373.321,728.806 369.5,724.5C 369.672,723.508 369.338,722.842 368.5,722.5C 367.974,720.77 366.974,719.436 365.5,718.5C 365.672,717.508 365.338,716.842 364.5,716.5C 364.167,715.167 363.833,715.167 363.5,716.5C 362.662,716.158 362.328,715.492 362.5,714.5C 363.833,714.167 363.833,713.833 362.5,713.5C 362.672,712.508 362.338,711.842 361.5,711.5C 359.612,707.394 357.446,703.394 355,699.5C 354.577,700.956 353.744,701.456 352.5,701C 352.201,699.927 352.201,698.76 352.5,697.5C 353.833,696.833 353.833,696.167 352.5,695.5C 349.07,686.981 345.403,678.648 341.5,670.5C 340.833,667.5 340.167,664.5 339.5,661.5C 339.369,660.761 339.536,660.094 340,659.5C 347.128,680.27 356.462,699.937 368,718.5C 403.406,769.318 449.906,806.485 507.5,830C 511.53,830.326 515.53,830.326 519.5,830C 518.584,830.278 517.918,830.778 517.5,831.5 Z" />
  </g>
  <g>
    <path style="opacity:0.004" fill="var(--border-color)"
      d="M 448.5,802.5 C 449.833,803.167 449.833,803.167 448.5,802.5 Z" />
  </g>
  <g>
    <path style="opacity:0.004" fill="var(--border-color)"
      d="M 448.5,804.5 C 449.833,805.167 449.833,805.167 448.5,804.5 Z" />
  </g>
  <g>
    <path style="opacity:0.004" fill="var(--border-color)"
      d="M 460.5,809.5 C 459.833,810.167 459.833,810.167 460.5,809.5 Z" />
  </g>
  <g>
    <path style="opacity:0.004" fill="var(--border-color)"
      d="M 562.5,809.5 C 563.833,810.167 563.833,810.167 562.5,809.5 Z" />
  </g>
  <g>
    <path style="opacity:0.008" fill="var(--border-color)"
      d="M 463.5,815.5 C 463.897,814.475 464.563,814.308 465.5,815C 464.906,815.464 464.239,815.631 463.5,815.5 Z" />
  </g>
  <g>
    <path style="opacity:0.004" fill="var(--border-color)"
      d="M 469.5,814.5 C 469.103,815.525 468.437,815.692 467.5,815C 468.094,814.536 468.761,814.369 469.5,814.5 Z" />
  </g>
  <g>
    <path style="opacity:0.004" fill="var(--border-color)"
      d="M 478.5,819.5 C 478.103,820.525 477.437,820.692 476.5,820C 477.094,819.536 477.761,819.369 478.5,819.5 Z" />
  </g>
  <g>
    <path style="opacity:0.008" fill="var(--border-color)"
      d="M 475.5,821.5 C 474.833,820.167 474.833,820.167 475.5,821.5 Z" />
  </g>
  <g>
    <path style="opacity:0.004" fill="var(--border-color)"
      d="M 475.5,821.5 C 476.833,822.167 476.833,822.167 475.5,821.5 Z" />
  </g>
  <g>
    <path style="opacity:0.012" fill="var(--border-color)"
      d="M 479.5,821.5 C 482.001,821.511 482.168,822.178 480,823.5C 479.536,822.906 479.369,822.239 479.5,821.5 Z" />
  </g>
  <g>
    <path style="opacity:0.004" fill="var(--border-color)"
      d="M 541.5,821.5 C 542.833,822.167 542.833,822.167 541.5,821.5 Z" />
  </g>
  <g>
    <path style="opacity:0.012" fill="var(--border-color)"
      d="M 488.5,824.5 C 488.5,824.833 488.5,825.167 488.5,825.5C 487.83,825.019 487.83,824.685 488.5,824.5 Z" />
  </g>
  <g>
    <path style="opacity:0.004" fill="var(--border-color)"
      d="M 488.5,825.5 C 489.833,826.167 489.833,826.167 488.5,825.5 Z" />
  </g>
  <g>
    <path style="opacity:0.004" fill="var(--border-color)"
      d="M 492.5,827.5 C 493.833,828.167 493.833,828.167 492.5,827.5 Z" />
  </g>
  <g>
    <path style="opacity:0.008" fill="var(--border-color)"
      d="M 530.5,827.5 C 531.833,828.167 531.833,828.167 530.5,827.5 Z" />
  </g>
  <g>
    <path style="opacity:0.004" fill="var(--border-color)"
      d="M 494.5,828.5 C 495.833,829.167 495.833,829.167 494.5,828.5 Z" />
  </g>
  <g>
    <path style="opacity:0.008" fill="var(--border-color)"
      d="M 491.5,829.5 C 492.833,830.167 492.833,830.167 491.5,829.5 Z" />
  </g>
  <g>
    <path style="opacity:0.004" fill="var(--border-color)"
      d="M 501.5,830.5 C 500.833,831.167 500.833,831.167 501.5,830.5 Z" />
  </g>
  <g>
    <path style="opacity:0.008" fill="var(--border-color)"
      d="M 523.5,830.5 C 524.833,831.167 524.833,831.167 523.5,830.5 Z" />
  </g>
</svg>